<svg xmlns="http://www.w3.org/2000/svg" xmlns:xlink="http://www.w3.org/1999/xlink" width="500" zoomAndPan="magnify" viewBox="0 0 375 374.999991" height="500" preserveAspectRatio="xMidYMid meet" version="1.0"><defs><clipPath id="22fd4163ad"><path d="M 61 12 L 314 12 L 314 329.878906 L 61 329.878906 Z M 61 12 " clip-rule="nonzero"/></clipPath><clipPath id="d9c41aa697"><path d="M 61 45.113281 L 314 45.113281 L 314 363 L 61 363 Z M 61 45.113281 " clip-rule="nonzero"/></clipPath></defs><g clip-path="url(#22fd4163ad)"><path fill="#0f172a" d="M 180.894531 329.492188 C 175.664062 329.492188 170.410156 329.492188 165.136719 329.492188 C 163.59375 329.492188 162.148438 328.929688 160.671875 328.570312 C 155.203125 327.273438 149.910156 325.457031 144.796875 323.125 C 139.886719 320.910156 135.167969 318.34375 130.644531 315.414062 C 128.238281 313.847656 125.78125 312.367188 123.453125 310.695312 C 120.4375 308.421875 117.640625 305.90625 115.058594 303.152344 C 113.359375 301.425781 111.402344 299.953125 109.945312 298.003906 C 107.414062 294.632812 104.648438 291.46875 102.097656 288.105469 C 100.457031 285.96875 99.484375 283.414062 98.234375 281.019531 C 95.84375 276.242188 93.722656 271.347656 91.875 266.335938 C 90.128906 261.8125 88.933594 257.085938 88.992188 252.175781 C 89.160156 247.945312 88.449219 243.871094 86.859375 239.949219 C 86.644531 239.214844 86.550781 238.464844 86.585938 237.699219 C 86.128906 232.328125 87.46875 227.304688 89.527344 222.414062 C 90.601562 219.863281 92.101562 217.589844 94.023438 215.597656 C 97.097656 212.261719 99.878906 208.695312 102.367188 204.90625 C 103.804688 202.835938 105.945312 201.382812 107.421875 199.328125 C 107.625 199.121094 107.757812 198.875 107.820312 198.589844 C 107.882812 198.304688 107.867188 198.023438 107.769531 197.746094 C 104.746094 189.367188 102.640625 180.765625 101.445312 171.9375 C 100.378906 164.59375 100.699219 157.246094 100.621094 149.898438 C 100.574219 145.542969 100.621094 141.183594 100.621094 136.820312 C 100.621094 135.710938 100.359375 135.21875 99.132812 135.207031 C 97.476562 135.207031 96.71875 134.285156 96.515625 132.53125 C 96.300781 130.609375 95.621094 129.707031 93.738281 129.265625 C 92.535156 128.976562 92.082031 128.367188 92.195312 127.191406 C 92.441406 124.425781 90.828125 122.832031 88.585938 121.777344 C 83.113281 119.222656 78.378906 115.816406 75 110.703125 C 74.125 109.285156 73.472656 107.769531 73.039062 106.160156 C 72.632812 104.851562 73.144531 103.617188 73.691406 102.414062 C 74.347656 101.035156 74.289062 100.84375 72.875 101.046875 C 68.835938 101.628906 65.953125 99.550781 63.671875 96.765625 C 61.683594 94.324219 61.015625 91.246094 61.324219 88.011719 C 61.394531 87.703125 61.425781 87.390625 61.40625 87.074219 C 60.753906 84.296875 62.625 83.003906 64.585938 81.976562 C 67.042969 80.667969 69.722656 79.871094 72.242188 78.707031 C 76.941406 76.472656 81.6875 74.371094 86.847656 73.308594 C 92.421875 72.15625 97.960938 70.691406 103.539062 69.671875 C 108.199219 68.796875 112.429688 66.605469 116.902344 65.132812 C 121.753906 63.515625 126.507812 61.644531 131.167969 59.523438 C 136.78125 57 142.691406 55.328125 148.433594 53.183594 C 151.917969 51.875 155.375 50.515625 158.980469 49.546875 C 164.484375 48.0625 169.960938 46.527344 175.753906 46.742188 C 178.011719 46.820312 180.117188 47.625 182.382812 47.738281 C 186.488281 47.933594 190.515625 47.960938 194.503906 46.71875 C 199.945312 45.015625 205.273438 43.023438 210.574219 40.929688 C 216.328125 38.664062 222.230469 36.78125 228.011719 34.5625 C 234.582031 32.046875 241.222656 29.707031 247.625 26.71875 C 252.070312 24.5625 256.730469 22.875 261.242188 20.898438 C 266.171875 18.734375 271.117188 16.507812 276.183594 14.753906 C 280.03125 13.445312 283.851562 11.890625 288.054688 12.140625 C 288.492188 12.105469 288.929688 12.128906 289.363281 12.203125 C 293.46875 13.558594 297.824219 13.824219 301.960938 15.035156 C 303.140625 15.40625 304.191406 16 305.113281 16.828125 C 308.382812 19.613281 310.34375 23.15625 310.527344 27.417969 C 310.675781 31.097656 311.148438 34.738281 311.472656 38.394531 C 311.761719 41.558594 310.164062 43.898438 308.511719 46.238281 C 307.800781 47.261719 306.765625 48.050781 305.980469 49.023438 C 302.152344 53.792969 298.527344 58.640625 297.484375 64.9375 C 297.085938 67.386719 296.164062 69.617188 294.722656 71.632812 C 293.527344 73.289062 293.847656 74.757812 294.722656 76.386719 C 296.835938 80.25 299.992188 83.152344 303.269531 85.957031 C 305.183594 87.535156 306.820312 89.359375 308.179688 91.4375 C 308.691406 92.210938 309.097656 93.039062 309.394531 93.917969 C 309.6875 94.800781 309.867188 95.703125 309.921875 96.632812 C 309.980469 97.558594 309.917969 98.476562 309.730469 99.386719 C 309.546875 100.296875 309.246094 101.167969 308.832031 102 C 307.527344 104.761719 306.046875 107.425781 304.394531 109.992188 C 302.910156 112.226562 301.992188 114.691406 300.894531 117.089844 C 300.398438 118.199219 299.785156 119.238281 299.066406 120.214844 C 298.730469 120.734375 298.292969 121.140625 297.75 121.433594 C 297.203125 121.722656 296.621094 121.863281 296.003906 121.851562 C 294.199219 121.851562 293.226562 122.777344 292.617188 124.496094 C 291.054688 128.871094 288.269531 130.597656 283.617188 129.976562 C 281.121094 129.675781 278.617188 129.542969 276.105469 129.578125 C 275.371094 129.640625 274.671875 129.515625 274.003906 129.199219 C 273.050781 128.664062 273.160156 129.316406 273.238281 129.890625 C 273.964844 135.3125 274.816406 140.710938 275.449219 146.144531 C 276.105469 151.792969 277.046875 157.414062 277.84375 163.050781 C 278.070312 164.253906 278.503906 165.375 279.152344 166.410156 C 281.273438 170.257812 282.941406 174.425781 286.027344 177.617188 C 289.828125 181.539062 293.21875 185.863281 297.496094 189.339844 C 299.382812 190.9375 301.164062 192.640625 302.84375 194.453125 C 305.289062 196.996094 308.261719 198.871094 311.003906 201.035156 C 313.3125 202.859375 314.3125 204.960938 313.53125 208.078125 C 311.851562 214.777344 310.585938 221.585938 308.957031 228.292969 C 307.941406 231.976562 306.601562 235.539062 304.929688 238.976562 C 302.96875 243.21875 301.273438 247.558594 298.855469 251.582031 C 294.613281 258.613281 290.730469 265.90625 286.183594 272.820312 C 282.132812 279.140625 277.457031 284.960938 272.167969 290.285156 C 267.847656 294.574219 263.269531 298.691406 257.953125 301.765625 C 252 305.183594 246.53125 309.347656 240.683594 312.917969 C 237.660156 314.761719 234.496094 316.375 231.347656 317.996094 C 226.644531 320.421875 222.113281 323.226562 217.179688 325.152344 C 213.679688 326.523438 210.183594 328.152344 206.410156 328.464844 C 200.792969 328.9375 195.203125 329.898438 189.523438 329.558594 C 186.652344 329.386719 183.777344 329.558594 180.898438 329.558594 Z M 278.589844 168.660156 C 278.589844 169.898438 278.515625 170.773438 278.589844 171.636719 C 279.109375 176 279.367188 180.382812 279.367188 184.777344 C 279.144531 195.433594 280.214844 206.148438 277.777344 216.707031 C 277.007812 220.074219 276.46875 223.488281 275.042969 226.671875 C 274.816406 227.195312 274.699219 227.835938 274.003906 228.136719 C 273.886719 227.328125 273.996094 226.550781 274.332031 225.808594 C 276.4375 218.855469 277.628906 211.753906 277.910156 204.496094 C 278.089844 199.566406 277.867188 194.621094 277.960938 189.6875 C 278.066406 179.910156 277.457031 170.175781 276.128906 160.488281 C 275 151.722656 273.984375 142.949219 272.722656 134.199219 C 272.527344 132.859375 272.855469 131.449219 272.214844 129.917969 C 271.941406 130.339844 271.691406 130.777344 271.46875 131.226562 C 270.421875 133.761719 269.121094 136.175781 268.03125 138.679688 C 265.105469 145.367188 260.839844 151.21875 256.589844 157.035156 C 252.835938 162.175781 247.933594 166.25 242.859375 170.046875 C 237.410156 174.023438 231.667969 177.511719 225.625 180.507812 C 224.949219 180.867188 224.238281 181.148438 223.5 181.351562 C 220.863281 182.070312 218.28125 182.941406 215.746094 183.964844 C 211.082031 185.722656 206.257812 186.617188 201.273438 186.648438 C 194.191406 186.789062 187.128906 186.941406 180.050781 185.835938 C 170.675781 184.332031 161.765625 181.417969 153.316406 177.09375 C 149.859375 175.355469 146.832031 172.917969 143.511719 170.996094 C 138.371094 168.003906 133.617188 164.492188 129.246094 160.460938 C 125.859375 157.375 123.222656 153.730469 120.554688 150.054688 C 117.804688 146.261719 115.574219 142.179688 113.867188 137.816406 C 113.179688 135.757812 112.789062 133.648438 112.691406 131.480469 C 112.691406 131.191406 112.574219 130.773438 112.976562 130.675781 C 113.382812 130.578125 113.539062 130.9375 113.632812 131.21875 C 113.863281 131.808594 114.054688 132.410156 114.207031 133.023438 C 114.617188 135.332031 115.304688 137.554688 116.273438 139.691406 C 120.066406 147.238281 124.597656 154.21875 130.929688 159.960938 C 134.46875 163.195312 138.265625 166.09375 142.320312 168.65625 C 144.113281 169.773438 145.941406 170.820312 147.660156 172.039062 C 153.003906 175.859375 158.984375 178.449219 165.050781 180.769531 C 171.121094 183.089844 177.382812 184.195312 183.769531 185 C 189.183594 185.652344 194.589844 185.484375 200.023438 185.339844 C 205.601562 185.195312 211.019531 184.457031 216.199219 182.371094 C 219.363281 181.097656 222.808594 180.535156 225.789062 178.851562 C 229.84375 176.566406 234.03125 174.523438 237.859375 171.8125 C 241.683594 169.097656 245.390625 166.320312 248.90625 163.253906 C 254.039062 158.777344 257.667969 153.09375 261.480469 147.5625 C 264.34375 143.398438 266.375 138.78125 268.59375 134.285156 C 270.425781 130.714844 271.804688 126.976562 272.730469 123.074219 C 273.644531 118.90625 274.585938 114.757812 275.660156 110.652344 C 276.613281 106.964844 277.730469 103.308594 278.273438 99.535156 C 278.609375 97.367188 279 95.203125 279.511719 93.070312 C 280.546875 88.980469 281.808594 84.960938 283.300781 81.015625 C 284.921875 76.488281 286.203125 71.863281 287.140625 67.148438 C 288.015625 63.386719 288.503906 59.574219 288.605469 55.714844 C 288.40625 55.949219 288.265625 56.21875 288.1875 56.519531 C 286.144531 63.664062 281.71875 69.34375 277.070312 74.910156 C 275.488281 76.796875 273.800781 78.570312 272.1875 80.453125 C 269.574219 83.53125 267.949219 87.207031 265.890625 90.617188 C 264.828125 92.511719 263.519531 94.21875 261.96875 95.738281 C 262.988281 93.640625 264.210938 91.660156 265.285156 89.605469 C 267.636719 84.855469 270.582031 80.507812 274.121094 76.5625 C 278.914062 71.398438 283.542969 66.101562 286.433594 59.519531 C 287.519531 57.058594 288.714844 54.5625 288.929688 51.875 C 289.375 46.292969 289.761719 40.691406 289.75 35.09375 C 289.75 30.738281 291.769531 26.984375 292.363281 22.769531 C 292.792969 23.101562 292.59375 23.371094 292.566406 23.613281 C 292.304688 26.261719 291.207031 28.75 290.972656 31.386719 C 290.644531 35.085938 290.449219 38.8125 290.449219 42.5 C 290.449219 46.945312 290.277344 51.390625 289.976562 55.8125 C 289.257812 65.359375 287.195312 74.609375 283.792969 83.558594 C 283.242188 84.855469 282.832031 86.195312 282.5625 87.578125 C 283.871094 87.132812 285.101562 87.003906 286.054688 86.160156 C 288.257812 84.371094 289.902344 82.160156 290.976562 79.53125 C 291.203125 78.648438 291.660156 77.902344 292.34375 77.300781 C 292.617188 77.871094 292.34375 78.261719 292.214844 78.679688 C 291.671875 80.640625 290.546875 82.363281 289.9375 84.289062 C 289.328125 86.21875 289.636719 87.179688 291.390625 88.214844 C 293.351562 89.390625 295.554688 89.828125 297.738281 90.332031 C 298.613281 90.527344 299.527344 90.679688 300.058594 91.519531 C 300.195312 91.738281 300.320312 92.039062 300.058594 92.265625 C 299.796875 92.496094 299.632812 92.3125 299.445312 92.195312 C 298.691406 91.742188 297.808594 91.75 296.992188 91.539062 C 293.539062 90.578125 289.589844 90.417969 288.132812 86.109375 C 287.328125 86.761719 286.890625 87.730469 286.035156 88.265625 C 284.472656 89.253906 284.296875 90.070312 285.320312 91.632812 C 286.492188 93.429688 288.34375 94.011719 290.332031 94.40625 C 293.632812 95.058594 297.003906 95.582031 299.332031 98.445312 C 299.984375 99.199219 300.460938 100.050781 300.769531 101 C 300.894531 101.4375 300.941406 101.96875 300.425781 102.179688 C 299.90625 102.386719 299.625 101.929688 299.449219 101.523438 C 299.140625 100.773438 298.742188 100.078125 298.253906 99.433594 C 296.691406 97.386719 294.332031 96.816406 292.09375 96.097656 C 291.257812 95.742188 290.386719 95.613281 289.480469 95.71875 C 290.679688 96.242188 291.800781 96.898438 292.847656 97.679688 C 293.90625 98.4375 294.886719 99.300781 295.933594 100.058594 C 298.0625 101.617188 298.882812 103.734375 298.945312 106.21875 C 299 108.179688 299.640625 110.316406 297.882812 111.816406 C 296.121094 113.3125 294.65625 115.136719 294.476562 117.652344 C 294.429688 118.253906 294.109375 118.808594 293.34375 118.710938 C 293.179688 118.703125 293.019531 118.664062 292.871094 118.59375 C 292.722656 118.523438 292.589844 118.425781 292.480469 118.300781 C 292.367188 118.179688 292.285156 118.039062 292.234375 117.882812 C 292.179688 117.722656 292.15625 117.5625 292.167969 117.398438 C 292.160156 116.066406 292.511719 114.832031 293.21875 113.703125 C 293.4375 113.355469 293.601562 112.984375 293.703125 112.589844 C 293.808594 112.191406 293.851562 111.789062 293.828125 111.378906 C 293.808594 110.96875 293.726562 110.574219 293.585938 110.1875 C 293.441406 109.804688 293.242188 109.449219 292.992188 109.128906 C 291.976562 107.648438 290.636719 107.511719 289.066406 107.898438 C 288.707031 107.988281 288.304688 108.246094 287.984375 107.78125 C 291.285156 105.40625 293.914062 106.804688 295.671875 111.867188 C 297.496094 110.933594 297.785156 109.289062 297.535156 107.527344 C 297.285156 105.761719 297.535156 103.695312 296.078125 102.203125 C 294.855469 100.941406 293.515625 99.824219 292.054688 98.84375 C 291.46875 98.464844 291.199219 98.328125 290.714844 99.066406 C 289.355469 101.222656 287.496094 102.789062 285.144531 103.773438 C 283.367188 104.394531 281.558594 104.921875 279.726562 105.347656 C 278.941406 105.578125 278.269531 105.925781 278.125 106.785156 C 278.082031 107.179688 278.164062 107.550781 278.363281 107.894531 C 278.558594 108.234375 278.839844 108.488281 279.203125 108.648438 C 280.425781 109.402344 281.679688 110.101562 282.949219 110.78125 C 285.089844 111.902344 286.691406 113.546875 287.761719 115.710938 C 288.847656 117.90625 288.132812 120.621094 286.21875 121.59375 C 285.722656 121.851562 285.144531 122.078125 284.78125 121.484375 C 284.414062 120.890625 285.082031 120.738281 285.402344 120.515625 C 285.863281 120.214844 286.210938 119.8125 286.433594 119.304688 C 286.660156 118.796875 286.730469 118.273438 286.644531 117.726562 C 286.484375 115.730469 285.375 114.34375 283.9375 113.101562 C 281.976562 111.429688 279.472656 110.65625 277.671875 108.730469 C 276.855469 111.035156 277.222656 111.75 279.449219 112.316406 C 280.4375 112.566406 281.273438 113.070312 281.957031 113.828125 C 282.136719 113.988281 282.28125 114.175781 282.386719 114.390625 C 282.492188 114.605469 282.554688 114.832031 282.570312 115.074219 C 282.585938 115.3125 282.558594 115.546875 282.480469 115.777344 C 282.40625 116.003906 282.289062 116.207031 282.132812 116.390625 C 282.023438 116.542969 281.878906 116.648438 281.703125 116.707031 C 281.523438 116.765625 281.347656 116.765625 281.171875 116.703125 C 281.027344 116.667969 280.917969 116.585938 280.847656 116.457031 C 280.777344 116.328125 280.765625 116.191406 280.8125 116.050781 C 281.339844 114.546875 280.15625 114.160156 279.234375 113.71875 C 278.335938 113.375 277.519531 112.890625 276.785156 112.273438 C 275.339844 116.503906 274.824219 120.769531 273.730469 124.96875 C 273.175781 127.140625 273.933594 128.113281 276.214844 128.09375 C 278.601562 128.09375 280.953125 128.40625 283.320312 128.53125 C 287.09375 128.734375 290.511719 128.53125 291.527344 123.4375 C 291.578125 123.0625 291.691406 122.710938 291.871094 122.375 C 292.050781 122.042969 292.28125 121.75 292.566406 121.5 C 292.847656 121.25 293.167969 121.054688 293.519531 120.917969 C 293.875 120.78125 294.242188 120.710938 294.617188 120.707031 C 297.195312 120.589844 298.542969 119.050781 299.359375 116.855469 C 299.566406 116.3125 299.816406 115.78125 300.066406 115.261719 C 300.765625 113.757812 301.167969 112.128906 302.097656 110.722656 C 304.085938 107.789062 305.867188 104.738281 307.445312 101.570312 C 307.828125 100.824219 308.101562 100.039062 308.269531 99.214844 C 308.4375 98.394531 308.496094 97.5625 308.4375 96.726562 C 308.378906 95.890625 308.210938 95.074219 307.933594 94.28125 C 307.652344 93.492188 307.273438 92.75 306.792969 92.0625 C 304.660156 88.980469 302.101562 86.3125 299.109375 84.054688 C 296.160156 81.8125 294.390625 78.6875 292.75 75.496094 C 292.410156 74.867188 292.273438 74.195312 292.335938 73.484375 C 292.398438 72.773438 292.652344 72.136719 293.09375 71.574219 C 294.464844 69.546875 295.421875 67.339844 295.960938 64.953125 C 296.683594 62.140625 297.078125 59.164062 298.769531 56.714844 C 300.121094 54.714844 301.230469 52.589844 302.097656 50.339844 C 302.714844 48.902344 303.035156 47.398438 303.0625 45.832031 C 303.089844 44.269531 302.820312 42.757812 302.253906 41.296875 C 301.222656 38.648438 299.746094 36.238281 298.566406 33.667969 C 297.785156 32 297.242188 30.257812 296.941406 28.4375 C 297.359375 28.792969 297.6875 29.21875 297.925781 29.710938 C 299.234375 32.929688 301.058594 35.863281 302.679688 38.910156 C 303.609375 40.667969 304.476562 42.488281 304.375 44.632812 C 304.308594 45.9375 304.375 47.246094 304.183594 48.683594 C 305.699219 47.378906 306.261719 43.664062 305.910156 41.851562 C 305.511719 39.8125 304.457031 38.105469 303.464844 36.355469 C 302.746094 35.191406 302.402344 33.925781 302.429688 32.554688 C 304.648438 36.480469 308.316406 39.847656 307.472656 45.089844 C 308.941406 43.128906 310.230469 41.289062 310.085938 38.726562 C 309.90625 35.597656 309.230469 32.511719 309.363281 29.351562 C 309.457031 27.019531 309.019531 24.785156 308.054688 22.65625 C 306.714844 19.703125 304.785156 17.148438 301.515625 16.023438 C 299.34375 15.339844 297.125 14.917969 294.855469 14.753906 C 292.664062 14.542969 292.664062 14.542969 293.5 16.597656 C 294.335938 18.652344 294.15625 20.304688 292.90625 21.3125 C 292.074219 21.964844 291.21875 22.816406 290.238281 23.089844 C 286.644531 24.109375 284.695312 26.535156 283.65625 29.972656 C 283.261719 31.28125 282.136719 31.894531 280.882812 32.316406 C 278.378906 33.058594 275.820312 33.476562 273.207031 33.570312 C 272.84375 33.566406 272.503906 33.644531 272.179688 33.8125 C 271.855469 33.976562 271.589844 34.207031 271.382812 34.503906 C 270.648438 35.414062 269.972656 36.363281 269.351562 37.355469 C 268.257812 39.394531 266.472656 40.308594 264.355469 40.890625 C 260.433594 41.976562 256.308594 42.050781 252.292969 42.734375 C 248.613281 43.335938 245.070312 44.398438 241.667969 45.925781 C 238.261719 47.453125 235.113281 49.390625 232.214844 51.738281 C 231.511719 52.375 230.730469 52.902344 229.882812 53.328125 C 229.398438 53.523438 229.070312 53.867188 228.902344 54.359375 C 228.382812 55.714844 228.039062 57.117188 227.867188 58.558594 C 227.59375 61.101562 227.273438 63.636719 227.023438 66.1875 C 226.566406 70.808594 226.566406 75.390625 227.777344 79.917969 C 228.714844 83.464844 229.011719 87.066406 228.664062 90.722656 C 228.605469 91.324219 228.796875 91.378906 229.273438 91.449219 C 230.464844 91.660156 230.796875 92.246094 230.503906 93.410156 C 230.382812 93.902344 229.882812 94.320312 230.195312 94.941406 C 230.328125 94.90625 230.453125 94.851562 230.566406 94.777344 C 234.679688 91.101562 235.960938 86.429688 235.230469 81.125 C 234.890625 78.660156 232.613281 76.921875 230.652344 77.394531 C 230.203125 77.503906 229.722656 77.765625 229.582031 77.113281 C 229.4375 76.457031 229.980469 76.261719 230.484375 76.164062 C 231.269531 75.996094 232.042969 76.039062 232.804688 76.292969 C 233.566406 76.546875 234.214844 76.972656 234.746094 77.574219 C 236.4375 79.316406 236.464844 81.445312 236.582031 83.695312 C 236.84375 88.742188 234.445312 92.441406 231.039062 95.738281 C 230.84375 95.929688 230.628906 96.085938 230.382812 96.207031 C 229.484375 96.640625 228.90625 96.289062 228.84375 95.292969 C 228.847656 94.65625 228.984375 94.046875 229.253906 93.46875 C 229.359375 93.175781 229.515625 92.816406 229.203125 92.601562 C 228.886719 92.382812 228.605469 92.601562 228.339844 92.789062 C 227.78125 93.171875 227.292969 93.628906 226.875 94.15625 C 225.800781 95.410156 224.878906 96.867188 223.265625 97.503906 C 219.34375 99.050781 215.25 98.96875 211.230469 98.191406 C 208.808594 97.71875 206.683594 96.320312 204.730469 94.757812 C 202.246094 92.796875 199.898438 90.597656 196.964844 89.234375 C 196.347656 88.914062 195.695312 88.78125 195.003906 88.835938 C 194.746094 88.859375 194.527344 88.960938 194.339844 89.136719 C 194.152344 89.3125 194.039062 89.527344 194 89.78125 C 193.933594 90.003906 193.941406 90.226562 194.023438 90.441406 C 194.109375 90.660156 194.25 90.832031 194.445312 90.953125 C 194.933594 91.300781 195.46875 91.515625 196.0625 91.605469 C 196.800781 91.777344 197.597656 91.738281 198.265625 92.179688 C 198.558594 92.378906 198.917969 92.546875 198.917969 92.964844 C 198.917969 93.382812 198.539062 93.535156 198.207031 93.679688 C 196.375 94.457031 194.519531 95.085938 192.472656 94.824219 C 190.425781 94.5625 188.390625 94.425781 186.648438 93.0625 C 185.929688 92.546875 185.285156 91.945312 184.714844 91.265625 C 184.148438 90.585938 183.671875 89.84375 183.289062 89.046875 C 182.90625 88.246094 182.625 87.414062 182.453125 86.542969 C 182.277344 85.671875 182.214844 84.796875 182.261719 83.910156 C 182.382812 78.457031 184.738281 72.144531 191.15625 70.535156 C 192.113281 70.277344 193.089844 70.1875 194.074219 70.269531 C 195.0625 70.351562 196.007812 70.597656 196.910156 71.011719 C 196.421875 71.503906 196.074219 71.261719 195.742188 71.226562 C 192 70.824219 188.792969 71.84375 186.484375 74.914062 C 185.683594 76.011719 185.0625 77.203125 184.613281 78.484375 C 183.613281 81.351562 183.449219 84.265625 184.117188 87.226562 C 184.585938 89.558594 186.320312 91.148438 188.242188 92.34375 C 190.394531 93.652344 192.859375 93.542969 195.28125 93.175781 C 194.847656 92.839844 194.382812 92.550781 193.890625 92.304688 C 193.480469 92.097656 193.152344 91.804688 192.898438 91.421875 C 192.648438 91.035156 192.511719 90.617188 192.488281 90.15625 C 192.460938 89.699219 192.554688 89.265625 192.761719 88.859375 C 192.972656 88.449219 193.269531 88.121094 193.65625 87.871094 C 194.160156 87.539062 194.710938 87.367188 195.3125 87.351562 C 195.917969 87.339844 196.476562 87.484375 196.996094 87.792969 C 199.210938 88.808594 201.25 90.101562 203.117188 91.671875 C 205.140625 93.613281 207.421875 95.1875 209.953125 96.390625 C 213.601562 98.019531 217.339844 97.550781 221.066406 96.933594 C 224.070312 96.4375 227.21875 92.148438 227.214844 89.957031 C 226.761719 90.089844 226.664062 90.527344 226.441406 90.839844 C 222.308594 96.726562 214.4375 95.484375 210.417969 90.757812 C 208.5625 88.578125 208.117188 85.90625 208.457031 83.144531 C 208.625 81.753906 208.457031 80.257812 209.203125 78.855469 C 209.546875 79.265625 209.664062 79.730469 209.546875 80.25 C 209.546875 81.726562 209.476562 83.21875 209.546875 84.6875 C 209.75 87.78125 210.960938 90.265625 213.804688 91.878906 C 214.800781 92.460938 215.859375 92.863281 216.992188 93.085938 C 218.121094 93.308594 219.253906 93.34375 220.394531 93.1875 C 223.265625 92.820312 226.070312 90.460938 226.597656 87.671875 C 227.101562 85.207031 227.019531 82.761719 226.351562 80.335938 C 225.230469 76.03125 224.953125 71.671875 225.519531 67.257812 C 225.886719 63.753906 226.449219 60.277344 226.945312 56.597656 L 225.246094 57.25 C 223.40625 57.953125 221.523438 58.53125 219.605469 58.976562 C 215.433594 59.804688 211.175781 60.519531 207.042969 61.828125 C 203.648438 62.835938 200.1875 63.53125 196.664062 63.90625 C 193.707031 64.257812 190.777344 64.859375 188.230469 66.457031 C 182.40625 70.023438 176.355469 73.148438 170.074219 75.832031 C 165.910156 77.636719 161.769531 79.476562 157.808594 81.683594 C 152.480469 84.644531 147.199219 87.695312 141.679688 90.324219 C 137.082031 92.457031 132.257812 93.765625 127.210938 94.246094 C 125.007812 94.488281 122.816406 94.902344 120.417969 95.246094 C 123.164062 98.097656 124.589844 101.425781 125.996094 104.78125 C 128.589844 110.859375 131.625 116.742188 136.0625 121.71875 C 136.207031 121.875 136.382812 122.058594 136.121094 122.375 C 134.925781 121.738281 133.941406 120.867188 133.167969 119.757812 C 130.050781 115.441406 127.488281 110.816406 125.480469 105.882812 C 124.261719 102.949219 123.300781 99.890625 121.378906 97.292969 C 120.726562 96.367188 120.070312 95.1875 118.710938 95.332031 C 115.175781 95.679688 111.632812 95.621094 108.089844 95.660156 C 106.910156 95.636719 105.765625 95.417969 104.664062 95.003906 C 102.523438 94.292969 100.507812 93.320312 98.613281 92.097656 C 98.339844 91.921875 98.050781 91.613281 97.609375 91.875 C 98.050781 94.605469 98.453125 97.351562 98.953125 100.078125 C 99.960938 104.867188 100.550781 109.707031 100.71875 114.601562 C 100.753906 117.332031 100.917969 120.066406 101.058594 122.792969 C 101.300781 127.367188 102.015625 131.871094 101.996094 136.449219 C 101.996094 139.863281 101.957031 143.28125 101.996094 146.695312 C 102.144531 154.847656 101.519531 163.039062 102.800781 171.160156 C 103.746094 177.140625 104.570312 183.140625 106.460938 188.929688 C 107.917969 193.40625 109.394531 197.878906 110.730469 202.394531 C 111.925781 206.777344 113.453125 211.039062 115.304688 215.183594 C 116.671875 218.105469 118.320312 220.90625 119.488281 223.925781 C 119.824219 224.464844 119.921875 225.046875 119.777344 225.664062 C 118.59375 223.90625 117.554688 222.09375 116.507812 220.285156 C 113.066406 214.292969 110.5 207.949219 108.8125 201.253906 C 108.75 201.003906 108.648438 200.652344 108.46875 200.597656 C 108.113281 200.441406 107.945312 200.847656 107.742188 201.0625 C 105.570312 203.4375 103.296875 205.691406 101.5625 208.457031 C 99.707031 211.417969 97.230469 213.921875 94.972656 216.597656 C 93.796875 217.972656 92.757812 219.441406 91.859375 221.011719 C 90.957031 222.578125 90.207031 224.21875 89.609375 225.925781 C 89.015625 227.632812 88.582031 229.378906 88.308594 231.167969 C 88.039062 232.957031 87.933594 234.753906 87.996094 236.5625 C 87.980469 237.824219 88.175781 239.046875 88.59375 240.238281 C 89.863281 243.5 90.457031 246.878906 90.382812 250.378906 C 90.335938 253.9375 90.773438 257.4375 91.691406 260.878906 C 93.222656 266.832031 95.902344 272.34375 98.476562 277.941406 C 100.523438 282.414062 102.597656 286.882812 105.976562 290.625 C 109.09375 294.074219 111.605469 298.039062 115.078125 301.222656 C 118.058594 303.941406 120.746094 306.996094 124.015625 309.363281 C 130.046875 313.605469 136.367188 317.367188 142.972656 320.644531 C 147.839844 323.09375 152.90625 325 158.175781 326.371094 C 161.273438 327.214844 164.292969 328.300781 167.632812 328.171875 C 172.210938 327.988281 176.789062 328.214844 181.363281 328.09375 C 187.863281 327.921875 194.355469 328.359375 200.867188 327.679688 C 206.699219 327.074219 212.320312 325.980469 217.617188 323.546875 C 221.539062 321.738281 225.34375 319.5625 229.234375 317.613281 C 234.792969 314.839844 240.105469 311.570312 245.402344 308.300781 C 248.574219 306.339844 251.378906 303.851562 254.671875 302.078125 C 259.425781 299.414062 263.785156 296.210938 267.75 292.46875 C 271.191406 289.449219 274.351562 286.15625 277.226562 282.589844 C 278.902344 280.433594 281.007812 278.601562 282.300781 276.164062 C 285.105469 270.886719 289.191406 266.425781 291.792969 261.007812 C 293.296875 257.863281 295.253906 254.933594 297.023438 251.921875 C 299.304688 247.84375 301.347656 243.65625 303.152344 239.347656 C 305.339844 234.417969 307.355469 229.441406 308.484375 224.140625 C 309.65625 218.65625 310.6875 213.136719 312.082031 207.710938 C 312.769531 205.03125 311.90625 203.335938 309.945312 201.773438 C 307.742188 200.015625 305.257812 198.609375 303.292969 196.542969 C 298.972656 191.96875 293.953125 188.15625 289.839844 183.378906 C 287.328125 180.46875 284.359375 177.953125 282.386719 174.578125 C 281.289062 172.664062 280.007812 170.832031 278.59375 168.648438 Z M 273.03125 32.210938 C 274.410156 32.046875 275.882812 31.855469 277.347656 31.695312 C 280.351562 31.347656 282.617188 30.097656 283.355469 26.902344 C 283.457031 26.476562 283.785156 26.097656 283.890625 25.671875 C 284.191406 24.363281 285.160156 23.789062 286.257812 23.304688 C 287.355469 22.820312 288.472656 22.335938 289.558594 21.796875 C 292.78125 20.179688 293.179688 18.734375 291.324219 15.597656 C 290.8125 14.742188 290.277344 13.871094 289.191406 13.703125 C 287.261719 13.378906 285.347656 13.464844 283.453125 13.949219 C 278.511719 15.304688 273.691406 16.992188 268.984375 19.015625 C 258.863281 23.253906 248.800781 27.691406 238.660156 31.910156 C 233.738281 33.957031 228.710938 35.773438 223.683594 37.542969 C 214.234375 40.90625 204.945312 44.828125 195.367188 47.847656 C 192.652344 48.675781 189.875 49.148438 187.035156 49.273438 C 184.199219 49.398438 181.390625 49.164062 178.613281 48.582031 C 175.363281 47.964844 172.109375 47.941406 168.851562 48.507812 C 163.570312 49.382812 158.429688 50.78125 153.433594 52.707031 C 146.046875 55.609375 138.324219 57.609375 131.09375 60.945312 C 128.78125 62.015625 126.28125 62.6875 123.960938 63.761719 C 118.328125 66.375 112.402344 68.246094 106.53125 70.117188 C 100.40625 72.078125 93.914062 72.824219 87.632812 74.332031 C 84.21875 75.15625 80.863281 75.960938 77.628906 77.453125 C 74.007812 79.125 70.4375 80.957031 66.632812 82.171875 C 64.90625 82.722656 64.277344 84.289062 63.308594 85.539062 C 63.179688 85.742188 63.136719 85.960938 63.183594 86.195312 C 63.230469 86.433594 63.355469 86.617188 63.550781 86.753906 C 65.257812 88.128906 66.914062 89.585938 69.4375 88.714844 C 71.039062 88.148438 72.707031 87.761719 74.261719 87.042969 C 76.347656 86.023438 78.546875 85.441406 80.863281 85.296875 C 84.414062 85.183594 87.949219 85.34375 91.476562 85.78125 C 93.234375 85.976562 94.746094 86.433594 95.835938 87.996094 C 96.402344 88.851562 97.132812 89.527344 98.03125 90.023438 C 99.074219 90.554688 100.066406 91.15625 101.074219 91.730469 C 103.113281 92.902344 105.277344 93.914062 107.609375 94.097656 C 111.199219 94.296875 114.785156 94.25 118.367188 93.945312 C 121.503906 93.75 124.589844 93.136719 127.707031 92.761719 C 131.285156 92.339844 134.839844 91.796875 138.167969 90.390625 C 142.796875 88.417969 147.289062 86.171875 151.644531 83.65625 C 156.703125 80.742188 161.777344 77.84375 167.171875 75.609375 C 173.355469 73.042969 179.324219 70.046875 185.078125 66.625 C 188.753906 64.363281 192.738281 62.992188 197.027344 62.511719 C 199.804688 62.246094 202.527344 61.707031 205.195312 60.898438 C 208.144531 59.984375 211.171875 59.269531 214.191406 58.628906 C 217.570312 57.921875 220.96875 57.320312 224.207031 56.097656 C 225.515625 55.597656 226.933594 55.316406 227.15625 53.5625 C 227.230469 53.335938 227.375 53.175781 227.59375 53.078125 C 230.921875 51.550781 233.3125 48.671875 236.550781 46.953125 C 240.210938 44.992188 243.878906 43.03125 247.925781 42.1875 C 252.464844 41.207031 257.011719 40.226562 261.695312 39.957031 C 263.726562 39.851562 265.832031 39.367188 267.246094 37.628906 C 268.273438 36.390625 269.207031 35.082031 270.050781 33.707031 C 270.703125 32.515625 271.507812 31.792969 273.039062 32.195312 Z M 96.960938 95.125 C 96.660156 91.476562 96.824219 91.699219 95.203125 89.800781 C 93.738281 88.101562 92.234375 87.1875 90.089844 87.1875 C 89.730469 87.167969 89.375 87.128906 89.023438 87.070312 C 85.675781 86.542969 82.324219 86.515625 78.96875 86.984375 C 76.074219 87.453125 73.503906 88.984375 70.699219 89.789062 C 68.082031 90.527344 65.613281 90.878906 63.257812 89.136719 C 62.644531 88.683594 62.367188 88.878906 62.421875 89.613281 C 62.453125 90.8125 62.675781 91.980469 63.089844 93.109375 C 63.5 94.238281 64.078125 95.273438 64.828125 96.214844 C 66.898438 98.667969 69.46875 100.308594 72.921875 99.824219 C 73.414062 99.78125 73.90625 99.78125 74.398438 99.824219 C 75.707031 99.882812 76.019531 100.328125 75.570312 101.523438 C 75.410156 101.949219 75.210938 102.347656 75.058594 102.773438 C 74.691406 103.765625 74.011719 104.734375 74.371094 105.851562 C 74.804688 107.375 75.445312 108.804688 76.289062 110.140625 C 79.558594 115.011719 84.046875 118.242188 89.277344 120.660156 C 91.808594 121.835938 93.671875 123.640625 93.664062 126.707031 C 93.664062 127.578125 94.050781 127.882812 94.863281 128.179688 C 95.273438 128.300781 95.660156 128.476562 96.019531 128.710938 C 96.378906 128.945312 96.695312 129.226562 96.972656 129.554688 C 97.25 129.878906 97.476562 130.238281 97.648438 130.632812 C 97.820312 131.023438 97.933594 131.433594 97.988281 131.859375 C 98.023438 132.214844 98.085938 132.566406 98.175781 132.914062 C 98.425781 133.8125 99.132812 133.898438 99.890625 133.789062 C 100.648438 133.675781 100.417969 133.023438 100.414062 132.519531 C 100.339844 127.859375 99.648438 123.222656 99.757812 118.546875 C 99.757812 117.699219 99.503906 117.242188 98.609375 117.0625 C 94.574219 116.34375 91.535156 114 89.15625 110.851562 C 86.425781 107.257812 83.042969 104.449219 79.007812 102.425781 C 78.71875 102.28125 78.152344 102.261719 78.355469 101.773438 C 78.558594 101.28125 79.007812 101.597656 79.316406 101.667969 C 79.613281 101.761719 79.90625 101.875 80.191406 102.007812 C 84.34375 103.609375 87.488281 106.453125 90.207031 109.90625 C 92.265625 112.519531 94.699219 114.664062 98.117188 115.390625 C 99.152344 115.605469 99.542969 115.46875 99.5625 114.300781 C 99.527344 111.511719 99.296875 108.742188 98.875 105.988281 C 98.582031 103.539062 97.289062 102.675781 94.730469 103.027344 C 92.761719 103.351562 90.808594 103.285156 88.867188 102.828125 C 86.925781 102.371094 85.144531 101.5625 83.527344 100.398438 C 79.695312 97.71875 75.53125 95.5625 70.640625 95.515625 C 70.410156 95.515625 70.164062 95.515625 70.101562 95.226562 C 70.042969 94.941406 70.285156 94.726562 70.546875 94.664062 C 70.976562 94.550781 71.410156 94.492188 71.855469 94.488281 C 74.6875 94.558594 77.355469 95.257812 79.859375 96.582031 C 81.785156 97.640625 83.695312 98.730469 85.550781 99.914062 C 86.738281 100.664062 88.019531 101.1875 89.394531 101.476562 C 90.769531 101.769531 92.152344 101.8125 93.542969 101.609375 C 94.882812 101.453125 96.15625 101.066406 97.515625 101.609375 C 97.816406 101.726562 98.25 101.777344 98.136719 101.261719 C 97.679688 99.105469 97.652344 96.765625 95.429688 95.378906 C 93.667969 94.300781 91.757812 93.757812 89.691406 93.75 C 88.882812 93.765625 88.117188 93.585938 87.402344 93.207031 C 87.171875 93.078125 86.890625 92.933594 86.9375 92.613281 C 86.984375 92.292969 87.304688 92.253906 87.59375 92.253906 C 90.875 92.265625 94.226562 92.253906 96.960938 95.125 Z M 278.648438 104.664062 C 279.953125 104.269531 281.058594 103.960938 282.164062 103.597656 C 285.074219 102.636719 287.628906 101.195312 289.355469 98.511719 C 289.871094 97.71875 289.832031 97.378906 288.925781 97.097656 C 287.808594 96.734375 286.796875 96.175781 285.894531 95.425781 C 284.988281 94.671875 284.257812 93.78125 283.695312 92.75 C 282.972656 91.769531 282.386719 90.714844 281.933594 89.585938 C 280.195312 94.726562 279.921875 99.746094 278.648438 104.664062 Z M 278.648438 104.664062 " fill-opacity="1" fill-rule="nonzero"/></g><path fill="#0f172a" d="M 224.363281 124.078125 C 223.507812 124.09375 222.664062 124 221.832031 123.804688 C 218.761719 122.679688 215.785156 123.25 212.921875 124.367188 C 211.898438 124.78125 210.84375 125.074219 209.753906 125.25 C 208.664062 125.421875 207.566406 125.472656 206.46875 125.394531 C 205.367188 125.320312 204.289062 125.121094 203.230469 124.800781 C 202.175781 124.480469 201.167969 124.046875 200.210938 123.496094 C 196.539062 121.535156 192.648438 121.308594 188.609375 121.261719 C 184.566406 121.214844 180.605469 121.707031 176.730469 120.347656 C 176.160156 120.164062 175.585938 120.132812 175.003906 120.25 C 174.460938 120.332031 173.949219 120.214844 173.832031 119.59375 C 173.71875 119.238281 173.714844 118.878906 173.824219 118.519531 C 173.933594 118.164062 174.132812 117.867188 174.425781 117.632812 C 174.917969 117.28125 175.570312 117.019531 176.023438 117.546875 C 177.75 119.570312 180.015625 119.109375 182.238281 119.089844 C 185.640625 119.089844 188.863281 118.027344 192.183594 117.515625 C 195.832031 116.960938 199.316406 117.214844 202.644531 118.921875 C 204.328125 119.675781 206.070312 120.25 207.875 120.640625 C 209.207031 121.019531 210.5625 121.15625 211.945312 121.050781 C 213.324219 120.945312 214.644531 120.601562 215.902344 120.027344 C 216.648438 119.65625 217.429688 119.378906 218.246094 119.203125 C 219.058594 119.027344 219.882812 118.953125 220.71875 118.980469 C 221.550781 119.007812 222.367188 119.140625 223.167969 119.371094 C 223.96875 119.605469 224.730469 119.929688 225.449219 120.351562 C 227.1875 121.328125 228.902344 121.773438 230.679688 120.351562 C 230.757812 120.277344 230.847656 120.214844 230.941406 120.160156 C 231.039062 120.105469 231.140625 120.066406 231.246094 120.039062 C 231.351562 120.011719 231.460938 119.996094 231.570312 119.996094 C 231.679688 119.996094 231.789062 120.007812 231.894531 120.035156 C 232 120.0625 232.101562 120.101562 232.199219 120.152344 C 232.296875 120.207031 232.382812 120.269531 232.464844 120.34375 C 232.546875 120.417969 232.617188 120.503906 232.675781 120.59375 C 232.734375 120.6875 232.78125 120.785156 232.816406 120.890625 C 232.90625 121.066406 232.949219 121.257812 232.941406 121.457031 C 232.9375 121.65625 232.882812 121.839844 232.785156 122.011719 C 232.683594 122.1875 232.550781 122.324219 232.382812 122.429688 C 232.210938 122.535156 232.027344 122.59375 231.828125 122.609375 C 229.273438 122.554688 226.964844 124.144531 224.363281 124.078125 Z M 224.363281 124.078125 " fill-opacity="1" fill-rule="nonzero"/><path fill="#0f172a" d="M 197.585938 307.871094 C 200.300781 305.429688 203.328125 303.46875 206.664062 301.988281 C 207.011719 301.84375 207.042969 301.484375 207.320312 301.367188 C 207.914062 301.097656 208.234375 300.109375 209.222656 300.777344 C 209.476562 300.953125 210.230469 300.535156 210.671875 300.261719 C 212.882812 298.902344 215.394531 298.300781 217.773438 297.363281 C 220.621094 296.328125 223.519531 295.457031 226.46875 294.75 C 230.007812 293.691406 233.355469 292.195312 236.503906 290.265625 C 236.949219 290.023438 237.296875 289.683594 237.550781 289.246094 C 237.59375 289.125 237.664062 289.023438 237.761719 288.9375 C 237.855469 288.851562 237.964844 288.792969 238.089844 288.761719 C 238.210938 288.730469 238.335938 288.730469 238.460938 288.757812 C 238.585938 288.785156 238.695312 288.839844 238.792969 288.925781 C 239.378906 289.328125 239.105469 289.839844 238.792969 290.191406 C 237.515625 291.496094 236.019531 292.457031 234.300781 293.070312 C 232.261719 293.785156 230.347656 294.742188 228.554688 295.945312 C 227.917969 296.277344 227.246094 296.515625 226.539062 296.652344 C 222.992188 297.789062 219.433594 298.886719 215.804688 299.726562 C 214.257812 300.097656 212.824219 300.722656 211.503906 301.609375 C 208.828125 303.386719 205.683594 304.175781 202.972656 305.855469 C 202.285156 306.277344 201.632812 306.746094 201.011719 307.257812 C 199.972656 308.09375 198.925781 308.519531 197.585938 307.871094 Z M 197.585938 307.871094 " fill-opacity="1" fill-rule="nonzero"/><path fill="#0f172a" d="M 225.476562 129.820312 C 223.433594 132.433594 221.917969 135.457031 219.480469 137.738281 C 218.660156 138.535156 217.710938 139.121094 216.628906 139.496094 C 215.546875 139.867188 214.4375 139.992188 213.300781 139.867188 C 208.136719 139.300781 202.992188 138.644531 197.8125 138.167969 C 195.511719 137.964844 193.335938 137.335938 191.277344 136.292969 C 189.644531 135.554688 188.304688 134.464844 187.25 133.023438 C 186.207031 131.335938 184.992188 129.789062 183.601562 128.382812 C 183.4375 128.285156 183.320312 128.148438 183.257812 127.96875 C 183.191406 127.792969 183.191406 127.613281 183.253906 127.433594 C 184.820312 128.648438 186.175781 130.066406 187.320312 131.683594 C 189.070312 134.234375 191.621094 135.382812 194.425781 136.1875 C 197.074219 136.945312 199.8125 137.019531 202.535156 137.253906 C 205.699219 137.527344 208.863281 137.796875 212.011719 138.273438 C 212.78125 138.425781 213.550781 138.460938 214.328125 138.382812 C 215.105469 138.308594 215.855469 138.117188 216.578125 137.820312 C 217.296875 137.519531 217.960938 137.121094 218.566406 136.625 C 219.167969 136.128906 219.6875 135.554688 220.121094 134.90625 C 221.085938 133.550781 222.148438 132.28125 223.316406 131.09375 C 223.894531 130.425781 224.613281 130.003906 225.476562 129.820312 Z M 225.476562 129.820312 " fill-opacity="1" fill-rule="nonzero"/><path fill="#0f172a" d="M 179.285156 116.933594 C 183.039062 115.515625 186.246094 113.199219 189.59375 111.140625 C 192.210938 109.546875 194.929688 108.578125 197.996094 108.859375 C 199.703125 109.105469 201.183594 109.820312 202.433594 111.003906 C 206.503906 114.488281 210.808594 114.03125 215.300781 112.160156 C 216.972656 111.382812 218.71875 110.832031 220.53125 110.507812 C 221.523438 110.34375 222.496094 110.417969 223.449219 110.738281 C 224.402344 111.058594 225.226562 111.582031 225.917969 112.3125 C 227.226562 113.617188 228.417969 115.015625 229.503906 116.507812 C 230.417969 117.757812 231.632812 118.046875 233.03125 117.984375 C 233.351562 117.984375 233.804688 117.632812 233.894531 118.1875 C 233.953125 118.574219 233.574219 118.84375 233.210938 118.902344 C 231.667969 119.203125 230.226562 119 229.128906 117.777344 C 228.03125 116.554688 227.117188 115.363281 226.128906 114.140625 C 223.832031 111.3125 221.769531 110.789062 218.285156 112.070312 C 215.84375 112.957031 213.503906 114.179688 210.894531 114.535156 C 208.285156 114.886719 205.703125 114.535156 203.460938 112.917969 C 202.886719 112.496094 202.246094 112.148438 201.691406 111.695312 C 198.101562 108.800781 194.425781 109.414062 190.785156 111.488281 C 187.628906 113.285156 184.59375 115.300781 181.175781 116.601562 C 180.585938 116.945312 179.957031 117.054688 179.285156 116.933594 Z M 179.285156 116.933594 " fill-opacity="1" fill-rule="nonzero"/><path fill="#0f172a" d="M 170.757812 311.675781 C 167.136719 311.925781 164.046875 310.421875 161.042969 308.660156 C 160.234375 308.097656 159.375 307.621094 158.46875 307.238281 C 154.207031 305.8125 150.792969 302.84375 146.84375 300.84375 C 146.226562 300.53125 145.734375 300.078125 145.375 299.488281 C 145.246094 299.316406 145.199219 299.125 145.230469 298.910156 C 145.265625 298.699219 145.367188 298.53125 145.542969 298.402344 C 145.855469 298.148438 146.152344 298.300781 146.378906 298.535156 C 147.726562 299.914062 149.550781 300.535156 151.152344 301.503906 C 154.082031 303.324219 157.105469 304.976562 160.222656 306.457031 C 161.710938 307.113281 163.050781 308.160156 164.542969 308.878906 C 166.261719 309.738281 168.082031 310.132812 170 310.0625 C 171.085938 309.945312 172.152344 310.035156 173.199219 310.335938 C 173.570312 310.464844 174.085938 310.546875 174.066406 311.035156 C 174.046875 311.527344 173.480469 311.644531 173.046875 311.6875 C 172.28125 311.707031 171.523438 311.675781 170.757812 311.675781 Z M 170.757812 311.675781 " fill-opacity="1" fill-rule="nonzero"/><path fill="#0f172a" d="M 182.78125 145.511719 C 185.824219 144.992188 188.835938 144.289062 191.898438 144.007812 C 199.371094 143.308594 206.847656 143.183594 214.25 144.835938 C 216.0625 145.253906 217.734375 145.988281 219.269531 147.039062 C 220.46875 147.929688 221.792969 148.5625 223.238281 148.929688 C 223.617188 149.007812 224.152344 149.171875 224.089844 149.640625 C 224.023438 150.113281 223.433594 150.035156 223.074219 150.015625 C 221.953125 149.996094 220.957031 149.636719 220.082031 148.9375 C 217.144531 146.386719 213.542969 145.667969 209.882812 145.195312 C 201.820312 144.160156 193.777344 144.273438 185.75 145.535156 C 184.789062 145.679688 183.789062 145.773438 182.839844 145.890625 Z M 182.78125 145.511719 " fill-opacity="1" fill-rule="nonzero"/><path fill="#0f172a" d="M 196.246094 167.203125 C 197.148438 168.328125 197.792969 169.585938 198.179688 170.976562 C 198.566406 172.367188 198.664062 173.777344 198.46875 175.207031 C 199.121094 174.402344 199.570312 173.898438 200.042969 173.367188 C 200.246094 173.144531 200.550781 172.910156 200.859375 173.191406 C 201.167969 173.472656 200.933594 173.773438 200.761719 174.027344 C 200.417969 174.550781 200.058594 175.0625 199.683594 175.558594 C 198.933594 176.5625 198.566406 177.691406 198.570312 178.945312 C 198.570312 179.449219 198.625 179.953125 198.027344 180.179688 C 197.707031 180.351562 197.363281 180.4375 196.996094 180.4375 C 196.628906 180.4375 196.285156 180.351562 195.964844 180.179688 C 195.375 179.808594 195.445312 179.304688 195.820312 178.800781 C 198.113281 175.667969 197.707031 172.347656 196.472656 168.996094 C 196.316406 168.453125 195.929688 167.960938 196.246094 167.203125 Z M 196.246094 167.203125 " fill-opacity="1" fill-rule="nonzero"/><g clip-path="url(#d9c41aa697)"><path fill="#0f172a" d="M 63.726562 130 C 66.007812 132.785156 68.890625 134.863281 72.929688 134.28125 C 74.34375 134.078125 74.40625 134.28125 73.746094 135.65625 C 73.179688 136.851562 72.667969 138.066406 73.09375 139.394531 C 73.527344 141.003906 74.179688 142.519531 75.054688 143.9375 C 78.433594 149.050781 83.175781 152.4375 88.640625 155.011719 C 90.882812 156.066406 92.5 157.660156 92.25 160.425781 C 92.136719 161.601562 92.589844 162.210938 93.792969 162.5 C 95.675781 162.945312 96.355469 163.847656 96.570312 165.769531 C 96.765625 167.519531 97.527344 168.421875 99.1875 168.441406 C 100.414062 168.441406 100.691406 168.945312 100.675781 170.058594 C 100.625 174.410156 100.605469 178.773438 100.675781 183.132812 C 100.753906 190.480469 100.433594 197.828125 101.5 205.171875 C 102.695312 214 104.800781 222.601562 107.824219 230.984375 C 107.921875 231.257812 107.941406 231.539062 107.878906 231.824219 C 107.816406 232.109375 107.679688 232.355469 107.476562 232.566406 C 106 234.617188 103.859375 236.070312 102.421875 238.140625 C 99.933594 241.933594 97.152344 245.496094 94.082031 248.832031 C 92.15625 250.824219 90.65625 253.097656 89.582031 255.648438 C 87.523438 260.539062 86.183594 265.5625 86.640625 270.9375 C 86.605469 271.699219 86.699219 272.449219 86.914062 273.183594 C 88.503906 277.105469 89.214844 281.183594 89.046875 285.410156 C 88.988281 290.320312 90.183594 295.046875 91.929688 299.570312 C 93.78125 304.582031 95.898438 309.476562 98.289062 314.253906 C 99.527344 316.648438 100.511719 319.203125 102.15625 321.34375 C 104.710938 324.683594 107.476562 327.878906 110 331.242188 C 111.457031 333.203125 113.414062 334.660156 115.113281 336.386719 C 117.695312 339.140625 120.492188 341.65625 123.507812 343.929688 C 125.847656 345.605469 128.304688 347.082031 130.699219 348.652344 C 135.222656 351.578125 139.941406 354.148438 144.851562 356.359375 C 149.960938 358.691406 155.25 360.507812 160.714844 361.804688 C 162.191406 362.164062 163.636719 362.726562 165.179688 362.726562 C 170.410156 362.726562 175.660156 362.726562 180.933594 362.726562 C 183.8125 362.726562 186.6875 362.582031 189.558594 362.726562 C 195.238281 363.066406 200.828125 362.074219 206.445312 361.636719 C 210.21875 361.320312 213.714844 359.671875 217.214844 358.320312 C 222.148438 356.359375 226.679688 353.59375 231.382812 351.167969 C 234.53125 349.546875 237.695312 347.929688 240.71875 346.085938 C 246.570312 342.519531 252.035156 338.355469 257.988281 334.933594 C 263.324219 331.882812 267.882812 327.742188 272.203125 323.472656 C 277.496094 318.148438 282.167969 312.328125 286.21875 306.011719 C 290.75 299.09375 294.648438 291.832031 298.890625 284.757812 C 301.308594 280.734375 303.027344 276.394531 304.964844 272.152344 C 306.636719 268.714844 307.980469 265.152344 308.992188 261.46875 C 310.644531 254.761719 311.914062 247.953125 313.566406 241.253906 C 314.347656 238.15625 313.347656 236.023438 311.039062 234.210938 C 308.296875 232.046875 305.324219 230.171875 302.878906 227.628906 C 301.199219 225.816406 299.417969 224.113281 297.53125 222.515625 C 293.28125 219.039062 289.863281 214.722656 286.0625 210.792969 C 282.976562 207.605469 281.3125 203.433594 279.1875 199.589844 C 278.539062 198.550781 278.105469 197.429688 277.878906 196.226562 C 277.082031 190.59375 276.152344 184.96875 275.484375 179.320312 C 274.832031 173.886719 274 168.488281 273.277344 163.066406 C 273.195312 162.492188 273.085938 161.839844 274.039062 162.375 C 274.707031 162.691406 275.40625 162.816406 276.140625 162.753906 C 278.652344 162.71875 281.15625 162.855469 283.652344 163.152344 C 288.304688 163.773438 291.089844 162.046875 292.652344 157.675781 C 293.261719 155.953125 294.234375 154.992188 296.039062 155.027344 C 296.65625 155.039062 297.238281 154.898438 297.785156 154.609375 C 298.328125 154.316406 298.765625 153.914062 299.101562 153.390625 C 299.820312 152.414062 300.433594 151.375 300.929688 150.265625 C 302.027344 147.867188 302.945312 145.402344 304.429688 143.167969 C 306.082031 140.601562 307.5625 137.9375 308.867188 135.175781 C 309.28125 134.347656 309.582031 133.476562 309.765625 132.5625 C 309.949219 131.652344 310.011719 130.734375 309.957031 129.808594 C 309.898438 128.878906 309.722656 127.976562 309.425781 127.09375 C 309.132812 126.214844 308.726562 125.386719 308.214844 124.613281 C 306.851562 122.539062 305.210938 120.710938 303.296875 119.132812 C 300.027344 116.328125 296.863281 113.425781 294.753906 109.5625 C 293.871094 107.933594 293.550781 106.464844 294.753906 104.808594 C 296.195312 102.800781 297.117188 100.574219 297.519531 98.132812 C 298.570312 91.839844 302.191406 87.019531 306.015625 82.222656 C 306.800781 81.246094 307.835938 80.457031 308.546875 79.4375 C 310.1875 77.089844 311.816406 74.75 311.507812 71.589844 C 311.183594 67.9375 310.710938 64.292969 310.5625 60.613281 C 310.378906 56.390625 308.417969 52.847656 305.148438 50.0625 C 304.226562 49.25 303.179688 48.664062 302.007812 48.304688 C 297.871094 47.09375 293.511719 46.824219 289.410156 45.472656 C 288.976562 45.394531 288.542969 45.375 288.101562 45.40625 C 283.898438 45.132812 280.082031 46.714844 276.230469 48.023438 C 271.132812 49.765625 266.222656 51.996094 261.292969 54.160156 C 256.765625 56.121094 252.140625 57.828125 247.660156 59.933594 C 241.273438 62.941406 234.628906 65.28125 228.046875 67.777344 C 222.265625 69.996094 216.363281 71.878906 210.609375 74.148438 C 205.308594 76.238281 199.980469 78.234375 194.539062 79.933594 C 190.550781 81.175781 186.523438 81.148438 182.417969 80.953125 C 180.152344 80.839844 178.046875 80.039062 175.789062 79.960938 C 169.996094 79.742188 164.519531 81.265625 159.015625 82.765625 C 155.410156 83.730469 151.953125 85.097656 148.46875 86.398438 C 142.726562 88.542969 136.816406 90.21875 131.203125 92.742188 C 126.542969 94.851562 121.789062 96.714844 116.9375 98.332031 C 112.464844 99.800781 108.234375 101.992188 103.574219 102.867188 C 97.976562 103.921875 92.457031 105.351562 86.882812 106.503906 C 81.722656 107.566406 76.976562 109.667969 72.277344 111.902344 C 69.757812 113.09375 67.078125 113.910156 64.621094 115.171875 C 62.660156 116.199219 60.777344 117.492188 61.445312 120.269531 C 61.460938 120.585938 61.429688 120.898438 61.359375 121.207031 C 61.050781 124.480469 61.71875 127.5625 63.726562 130 Z M 63.726562 130 " fill-opacity="1" fill-rule="nonzero"/><path fill="#eff0f6" d="M 180.929688 362.726562 C 175.699219 362.726562 170.445312 362.726562 165.171875 362.726562 C 163.628906 362.726562 162.183594 362.164062 160.707031 361.804688 C 155.238281 360.507812 149.945312 358.691406 144.832031 356.359375 C 139.921875 354.148438 135.203125 351.578125 130.679688 348.652344 C 128.273438 347.082031 125.816406 345.605469 123.488281 343.929688 C 120.472656 341.65625 117.675781 339.140625 115.09375 336.386719 C 113.394531 334.660156 111.4375 333.1875 109.980469 331.242188 C 107.449219 327.867188 104.683594 324.703125 102.136719 321.34375 C 100.492188 319.203125 99.519531 316.648438 98.269531 314.253906 C 95.878906 309.476562 93.757812 304.582031 91.910156 299.570312 C 90.164062 295.046875 88.96875 290.320312 89.027344 285.410156 C 89.195312 281.183594 88.484375 277.105469 86.894531 273.183594 C 86.679688 272.449219 86.585938 271.699219 86.621094 270.933594 C 86.164062 265.5625 87.503906 260.539062 89.5625 255.648438 C 90.636719 253.097656 92.136719 250.824219 94.0625 248.832031 C 97.132812 245.496094 99.914062 241.933594 102.402344 238.140625 C 103.839844 236.070312 105.980469 234.617188 107.457031 232.566406 C 107.660156 232.355469 107.796875 232.109375 107.859375 231.824219 C 107.921875 231.539062 107.902344 231.257812 107.804688 230.984375 C 104.78125 222.601562 102.675781 214 101.480469 205.171875 C 100.414062 197.828125 100.734375 190.480469 100.65625 183.132812 C 100.613281 178.777344 100.65625 174.417969 100.65625 170.058594 C 100.65625 168.945312 100.394531 168.453125 99.167969 168.441406 C 97.511719 168.441406 96.753906 167.519531 96.550781 165.769531 C 96.335938 163.847656 95.65625 162.945312 93.773438 162.5 C 92.570312 162.210938 92.117188 161.601562 92.230469 160.425781 C 92.476562 157.660156 90.863281 156.066406 88.621094 155.011719 C 83.15625 152.457031 78.414062 149.050781 75.035156 143.9375 C 74.160156 142.519531 73.507812 141.003906 73.074219 139.394531 C 72.667969 138.085938 73.179688 136.851562 73.726562 135.648438 C 74.382812 134.269531 74.324219 134.078125 72.910156 134.28125 C 68.871094 134.863281 65.988281 132.785156 63.707031 130 C 61.71875 127.5625 61.050781 124.480469 61.359375 121.246094 C 61.429688 120.9375 61.460938 120.625 61.445312 120.308594 C 60.789062 117.53125 62.660156 116.238281 64.621094 115.210938 C 67.078125 113.902344 69.757812 113.105469 72.277344 111.941406 C 76.976562 109.707031 81.722656 107.609375 86.882812 106.542969 C 92.457031 105.390625 97.996094 103.925781 103.574219 102.90625 C 108.234375 102.03125 112.464844 99.839844 116.9375 98.371094 C 121.789062 96.75 126.542969 94.878906 131.203125 92.761719 C 136.816406 90.238281 142.726562 88.5625 148.46875 86.417969 C 151.953125 85.109375 155.410156 83.75 159.015625 82.785156 C 164.519531 81.300781 169.996094 79.761719 175.789062 79.980469 C 178.046875 80.058594 180.152344 80.859375 182.417969 80.972656 C 186.523438 81.167969 190.550781 81.195312 194.539062 79.953125 C 199.980469 78.253906 205.308594 76.257812 210.609375 74.167969 C 216.363281 71.898438 222.265625 70.015625 228.046875 67.796875 C 234.617188 65.28125 241.261719 62.941406 247.660156 59.953125 C 252.105469 57.796875 256.765625 56.109375 261.277344 54.132812 C 266.207031 51.96875 271.152344 49.742188 276.21875 47.988281 C 280.070312 46.679688 283.886719 45.125 288.089844 45.375 C 288.527344 45.339844 288.964844 45.363281 289.398438 45.4375 C 293.503906 46.792969 297.859375 47.0625 301.996094 48.269531 C 303.175781 48.640625 304.226562 49.238281 305.148438 50.0625 C 308.417969 52.847656 310.378906 56.390625 310.5625 60.652344 C 310.710938 64.332031 311.183594 67.976562 311.507812 71.628906 C 311.796875 74.792969 310.203125 77.132812 308.546875 79.476562 C 307.835938 80.496094 306.800781 81.285156 306.015625 82.261719 C 302.1875 87.027344 298.5625 91.878906 297.519531 98.171875 C 297.121094 100.621094 296.199219 102.851562 294.757812 104.867188 C 293.5625 106.523438 293.882812 107.992188 294.757812 109.621094 C 296.871094 113.484375 300.027344 116.386719 303.304688 119.191406 C 305.21875 120.769531 306.859375 122.597656 308.21875 124.671875 C 308.734375 125.445312 309.136719 126.273438 309.433594 127.152344 C 309.730469 128.035156 309.90625 128.9375 309.960938 129.867188 C 310.019531 130.792969 309.957031 131.710938 309.773438 132.621094 C 309.585938 133.535156 309.289062 134.40625 308.875 135.238281 C 307.570312 137.996094 306.089844 140.660156 304.433594 143.226562 C 302.949219 145.460938 302.035156 147.925781 300.9375 150.324219 C 300.441406 151.433594 299.832031 152.476562 299.105469 153.449219 C 298.773438 153.972656 298.335938 154.378906 297.789062 154.667969 C 297.246094 154.960938 296.664062 155.097656 296.046875 155.085938 C 294.242188 155.085938 293.269531 156.011719 292.660156 157.734375 C 291.097656 162.105469 288.3125 163.832031 283.65625 163.210938 C 281.164062 162.914062 278.660156 162.78125 276.144531 162.8125 C 275.410156 162.875 274.710938 162.75 274.046875 162.433594 C 273.09375 161.898438 273.203125 162.550781 273.28125 163.125 C 274.007812 168.546875 274.859375 173.945312 275.492188 179.378906 C 276.144531 185.027344 277.085938 190.652344 277.882812 196.285156 C 278.109375 197.488281 278.546875 198.609375 279.191406 199.648438 C 281.316406 203.492188 282.984375 207.664062 286.070312 210.851562 C 289.867188 214.777344 293.261719 219.097656 297.539062 222.574219 C 299.425781 224.171875 301.207031 225.875 302.886719 227.6875 C 305.332031 230.230469 308.304688 232.105469 311.042969 234.269531 C 313.351562 236.09375 314.351562 238.195312 313.574219 241.3125 C 311.894531 248.015625 310.625 254.820312 309 261.527344 C 307.984375 265.210938 306.644531 268.773438 304.972656 272.210938 C 303.007812 276.453125 301.316406 280.792969 298.898438 284.816406 C 294.648438 291.851562 290.765625 299.140625 286.21875 306.058594 C 282.167969 312.375 277.496094 318.195312 272.203125 323.519531 C 267.882812 327.808594 263.304688 331.925781 257.988281 335 C 252.035156 338.417969 246.570312 342.582031 240.71875 346.152344 C 237.695312 347.996094 234.53125 349.613281 231.382812 351.234375 C 226.679688 353.660156 222.148438 356.464844 217.214844 358.386719 C 213.714844 359.757812 210.21875 361.386719 206.445312 361.699219 C 200.828125 362.171875 195.238281 363.132812 189.558594 362.792969 C 186.695312 362.621094 183.8125 362.792969 180.933594 362.792969 Z M 278.625 201.894531 C 278.625 203.132812 278.550781 204.007812 278.625 204.871094 C 279.144531 209.234375 279.402344 213.617188 279.402344 218.011719 C 279.179688 228.667969 280.25 239.382812 277.8125 249.941406 C 277.042969 253.308594 276.503906 256.722656 275.078125 259.90625 C 274.851562 260.429688 274.734375 261.070312 274.039062 261.371094 C 273.921875 260.5625 274.03125 259.789062 274.367188 259.042969 C 276.472656 252.09375 277.664062 244.988281 277.945312 237.730469 C 278.125 232.800781 277.90625 227.859375 277.996094 222.921875 C 278.101562 213.144531 277.492188 203.410156 276.164062 193.722656 C 275.035156 184.957031 274.019531 176.183594 272.757812 167.433594 C 272.5625 166.09375 272.890625 164.683594 272.25 163.152344 C 271.976562 163.574219 271.726562 164.011719 271.503906 164.460938 C 270.457031 166.996094 269.15625 169.410156 268.066406 171.914062 C 265.140625 178.601562 260.875 184.453125 256.625 190.273438 C 252.871094 195.410156 247.96875 199.484375 242.894531 203.28125 C 237.445312 207.257812 231.703125 210.746094 225.660156 213.742188 C 224.984375 214.101562 224.273438 214.382812 223.535156 214.585938 C 220.898438 215.304688 218.316406 216.175781 215.78125 217.199219 C 211.117188 218.957031 206.292969 219.851562 201.308594 219.882812 C 194.226562 220.027344 187.164062 220.175781 180.085938 219.070312 C 170.714844 217.566406 161.800781 214.65625 153.351562 210.328125 C 149.894531 208.589844 146.867188 206.152344 143.546875 204.230469 C 138.40625 201.238281 133.652344 197.726562 129.28125 193.699219 C 125.894531 190.613281 123.257812 186.964844 120.589844 183.289062 C 117.839844 179.496094 115.609375 175.414062 113.902344 171.050781 C 113.21875 168.992188 112.824219 166.882812 112.726562 164.714844 C 112.726562 164.429688 112.609375 164.007812 113.015625 163.910156 C 113.417969 163.8125 113.574219 164.171875 113.667969 164.453125 C 113.898438 165.042969 114.089844 165.644531 114.242188 166.257812 C 114.652344 168.566406 115.339844 170.789062 116.308594 172.925781 C 120.101562 180.472656 124.632812 187.453125 130.964844 193.195312 C 134.503906 196.429688 138.300781 199.328125 142.355469 201.890625 C 144.148438 203.007812 145.976562 204.054688 147.695312 205.277344 C 153.039062 209.09375 159.019531 211.683594 165.085938 214.003906 C 171.15625 216.324219 177.417969 217.429688 183.804688 218.234375 C 189.21875 218.886719 194.625 218.71875 200.058594 218.574219 C 205.636719 218.429688 211.054688 217.691406 216.234375 215.605469 C 219.398438 214.332031 222.84375 213.769531 225.824219 212.089844 C 229.878906 209.800781 234.066406 207.761719 237.894531 205.046875 C 241.71875 202.335938 245.425781 199.554688 248.941406 196.488281 C 254.074219 192.011719 257.703125 186.328125 261.515625 180.796875 C 264.382812 176.632812 266.410156 172.019531 268.628906 167.519531 C 270.460938 163.949219 271.839844 160.210938 272.765625 156.308594 C 273.679688 152.144531 274.621094 147.992188 275.695312 143.886719 C 276.648438 140.199219 277.765625 136.542969 278.308594 132.773438 C 278.644531 130.601562 279.035156 128.4375 279.546875 126.304688 C 280.582031 122.214844 281.84375 118.195312 283.335938 114.25 C 284.957031 109.722656 286.238281 105.101562 287.175781 100.382812 C 288.050781 96.621094 288.539062 92.808594 288.640625 88.949219 C 288.441406 89.1875 288.300781 89.453125 288.222656 89.753906 C 286.179688 96.898438 281.753906 102.578125 277.105469 108.144531 C 275.523438 110.03125 273.835938 111.804688 272.222656 113.6875 C 269.609375 116.765625 267.988281 120.441406 265.925781 123.855469 C 264.863281 125.746094 263.558594 127.453125 262.003906 128.972656 C 263.023438 126.875 264.246094 124.894531 265.320312 122.839844 C 267.671875 118.089844 270.617188 113.742188 274.15625 109.796875 C 278.949219 104.632812 283.578125 99.335938 286.46875 92.753906 C 287.554688 90.296875 288.75 87.796875 288.964844 85.109375 C 289.410156 79.527344 289.796875 73.925781 289.785156 68.328125 C 289.785156 63.972656 291.804688 60.222656 292.398438 56.003906 C 292.832031 56.335938 292.628906 56.605469 292.601562 56.847656 C 292.339844 59.496094 291.242188 61.988281 291.007812 64.621094 C 290.679688 68.320312 290.484375 72.046875 290.484375 75.734375 C 290.484375 80.179688 290.3125 84.628906 290.011719 89.046875 C 289.292969 98.59375 287.230469 107.84375 283.828125 116.792969 C 283.277344 118.089844 282.867188 119.429688 282.597656 120.8125 C 283.90625 120.371094 285.136719 120.238281 286.089844 119.394531 C 288.292969 117.605469 289.9375 115.394531 291.011719 112.765625 C 291.238281 111.882812 291.695312 111.140625 292.378906 110.535156 C 292.652344 111.105469 292.378906 111.496094 292.25 111.914062 C 291.707031 113.878906 290.582031 115.597656 289.972656 117.527344 C 289.363281 119.453125 289.671875 120.414062 291.425781 121.449219 C 293.386719 122.625 295.589844 123.0625 297.773438 123.566406 C 298.648438 123.761719 299.5625 123.914062 300.09375 124.757812 C 300.230469 124.972656 300.355469 125.273438 300.09375 125.5 C 299.832031 125.730469 299.667969 125.546875 299.480469 125.429688 C 298.726562 124.980469 297.84375 124.984375 297.035156 124.777344 C 293.574219 123.816406 289.625 123.652344 288.167969 119.34375 C 287.363281 119.996094 286.925781 120.964844 286.070312 121.5 C 284.507812 122.488281 284.332031 123.304688 285.359375 124.867188 C 286.527344 126.664062 288.378906 127.246094 290.367188 127.640625 C 293.667969 128.292969 297.039062 128.816406 299.367188 131.679688 C 300.019531 132.4375 300.496094 133.289062 300.804688 134.234375 C 300.929688 134.675781 300.976562 135.203125 300.460938 135.414062 C 299.945312 135.621094 299.664062 135.164062 299.484375 134.757812 C 299.175781 134.011719 298.777344 133.3125 298.289062 132.667969 C 296.726562 130.621094 294.367188 130.050781 292.128906 129.332031 C 291.292969 128.976562 290.421875 128.851562 289.515625 128.953125 C 290.714844 129.476562 291.835938 130.132812 292.882812 130.914062 C 293.941406 131.671875 294.921875 132.535156 295.96875 133.292969 C 298.101562 134.851562 298.917969 136.96875 298.980469 139.453125 C 299.035156 141.414062 299.675781 143.550781 297.917969 145.050781 C 296.15625 146.546875 294.695312 148.371094 294.511719 150.886719 C 294.464844 151.488281 294.152344 152.046875 293.378906 151.945312 C 293.214844 151.941406 293.054688 151.898438 292.90625 151.828125 C 292.757812 151.757812 292.625 151.660156 292.515625 151.535156 C 292.40625 151.414062 292.320312 151.273438 292.269531 151.117188 C 292.214844 150.960938 292.191406 150.796875 292.203125 150.632812 C 292.195312 149.300781 292.546875 148.070312 293.253906 146.9375 C 293.472656 146.59375 293.636719 146.21875 293.738281 145.824219 C 293.84375 145.425781 293.886719 145.023438 293.863281 144.613281 C 293.84375 144.203125 293.761719 143.808594 293.621094 143.425781 C 293.476562 143.039062 293.277344 142.6875 293.027344 142.363281 C 292.011719 140.886719 290.671875 140.746094 289.105469 141.132812 C 288.742188 141.226562 288.339844 141.480469 288.019531 141.015625 C 291.320312 138.644531 293.949219 140.042969 295.707031 145.101562 C 297.53125 144.167969 297.820312 142.527344 297.570312 140.761719 C 297.320312 138.996094 297.570312 136.929688 296.113281 135.4375 C 294.890625 134.179688 293.550781 133.058594 292.089844 132.078125 C 291.503906 131.699219 291.234375 131.5625 290.75 132.300781 C 289.390625 134.457031 287.535156 136.027344 285.179688 137.007812 C 283.402344 137.628906 281.597656 138.15625 279.761719 138.582031 C 278.976562 138.8125 278.304688 139.160156 278.160156 140.023438 C 278.121094 140.417969 278.199219 140.785156 278.398438 141.128906 C 278.597656 141.472656 278.875 141.722656 279.238281 141.886719 C 280.460938 142.636719 281.714844 143.335938 282.984375 144.015625 C 285.125 145.136719 286.726562 146.78125 287.796875 148.945312 C 288.882812 151.144531 288.167969 153.855469 286.253906 154.832031 C 285.757812 155.085938 285.179688 155.3125 284.816406 154.71875 C 284.449219 154.125 285.117188 153.972656 285.46875 153.75 C 285.929688 153.449219 286.273438 153.042969 286.496094 152.539062 C 286.722656 152.03125 286.789062 151.507812 286.703125 150.960938 C 286.546875 148.964844 285.4375 147.578125 283.996094 146.335938 C 282.035156 144.664062 279.53125 143.890625 277.734375 141.964844 C 276.917969 144.273438 277.285156 144.984375 279.511719 145.554688 C 280.5 145.804688 281.335938 146.304688 282.015625 147.0625 C 282.199219 147.222656 282.339844 147.410156 282.449219 147.625 C 282.554688 147.839844 282.617188 148.070312 282.632812 148.308594 C 282.648438 148.546875 282.621094 148.78125 282.542969 149.011719 C 282.46875 149.238281 282.351562 149.445312 282.191406 149.625 C 282.085938 149.777344 281.941406 149.882812 281.765625 149.941406 C 281.585938 150 281.410156 150 281.230469 149.941406 C 281.089844 149.902344 280.980469 149.820312 280.910156 149.691406 C 280.839844 149.5625 280.828125 149.425781 280.871094 149.285156 C 281.402344 147.78125 280.21875 147.398438 279.296875 146.953125 C 278.398438 146.609375 277.582031 146.125 276.84375 145.507812 C 275.40625 149.738281 274.882812 154.007812 273.792969 158.203125 C 273.234375 160.375 273.996094 161.347656 276.277344 161.328125 C 278.664062 161.328125 281.015625 161.644531 283.382812 161.765625 C 287.15625 161.96875 290.574219 161.765625 291.589844 156.675781 C 291.640625 156.296875 291.753906 155.945312 291.933594 155.609375 C 292.113281 155.277344 292.34375 154.984375 292.628906 154.734375 C 292.910156 154.484375 293.230469 154.289062 293.582031 154.152344 C 293.9375 154.015625 294.300781 153.945312 294.679688 153.941406 C 297.257812 153.824219 298.601562 152.285156 299.421875 150.089844 C 299.628906 149.546875 299.878906 149.019531 300.125 148.496094 C 300.824219 146.992188 301.230469 145.363281 302.160156 143.957031 C 304.144531 141.027344 305.929688 137.976562 307.507812 134.804688 C 307.890625 134.058594 308.164062 133.273438 308.332031 132.449219 C 308.5 131.628906 308.554688 130.796875 308.5 129.960938 C 308.441406 129.125 308.273438 128.308594 307.992188 127.519531 C 307.714844 126.726562 307.335938 125.988281 306.855469 125.300781 C 304.714844 122.214844 302.144531 119.546875 299.144531 117.289062 C 296.195312 115.046875 294.425781 111.921875 292.785156 108.730469 C 292.445312 108.101562 292.308594 107.429688 292.371094 106.71875 C 292.433594 106.007812 292.6875 105.371094 293.132812 104.808594 C 294.5 102.78125 295.457031 100.574219 295.996094 98.1875 C 296.71875 95.375 297.113281 92.402344 298.804688 89.949219 C 300.15625 87.949219 301.265625 85.824219 302.132812 83.574219 C 302.75 82.136719 303.070312 80.632812 303.097656 79.070312 C 303.125 77.503906 302.855469 75.992188 302.289062 74.53125 C 301.257812 71.886719 299.78125 69.472656 298.601562 66.902344 C 297.820312 65.234375 297.277344 63.492188 296.976562 61.671875 C 297.394531 62.027344 297.722656 62.453125 297.960938 62.949219 C 299.269531 66.164062 301.09375 69.101562 302.714844 72.144531 C 303.644531 73.90625 304.511719 75.722656 304.410156 77.867188 C 304.34375 79.175781 304.410156 80.480469 304.21875 81.921875 C 305.734375 80.613281 306.296875 76.898438 305.945312 75.089844 C 305.546875 73.046875 304.492188 71.34375 303.5 69.589844 C 302.78125 68.425781 302.4375 67.160156 302.46875 65.792969 C 304.683594 69.714844 308.351562 73.082031 307.507812 78.324219 C 308.980469 76.363281 310.265625 74.527344 310.121094 71.964844 C 309.941406 68.832031 309.265625 65.746094 309.398438 62.589844 C 309.496094 60.253906 309.058594 58.019531 308.089844 55.894531 C 306.75 52.9375 304.820312 50.382812 301.550781 49.257812 C 299.378906 48.574219 297.160156 48.152344 294.890625 47.988281 C 292.699219 47.78125 292.699219 47.78125 293.535156 49.832031 C 294.375 51.886719 294.191406 53.539062 292.941406 54.546875 C 292.109375 55.199219 291.253906 56.050781 290.273438 56.324219 C 286.679688 57.34375 284.730469 59.769531 283.691406 63.210938 C 283.296875 64.515625 282.171875 65.132812 280.917969 65.550781 C 278.414062 66.292969 275.855469 66.710938 273.242188 66.804688 C 272.878906 66.800781 272.539062 66.882812 272.214844 67.046875 C 271.890625 67.210938 271.628906 67.441406 271.417969 67.738281 C 270.683594 68.648438 270.007812 69.597656 269.390625 70.589844 C 268.292969 72.628906 266.507812 73.546875 264.390625 74.128906 C 260.46875 75.210938 256.34375 75.285156 252.328125 75.972656 C 248.648438 76.570312 245.105469 77.636719 241.703125 79.160156 C 238.296875 80.6875 235.148438 82.625 232.25 84.972656 C 231.546875 85.609375 230.765625 86.140625 229.917969 86.5625 C 229.433594 86.757812 229.105469 87.101562 228.9375 87.59375 C 228.417969 88.953125 228.074219 90.351562 227.902344 91.792969 C 227.628906 94.335938 227.308594 96.871094 227.058594 99.421875 C 226.601562 104.042969 226.601562 108.628906 227.8125 113.152344 C 228.75 116.699219 229.046875 120.304688 228.699219 123.957031 C 228.640625 124.558594 228.832031 124.613281 229.308594 124.683594 C 230.5 124.894531 230.832031 125.480469 230.539062 126.644531 C 230.421875 127.136719 229.917969 127.554688 230.230469 128.175781 C 230.363281 128.140625 230.488281 128.085938 230.601562 128.011719 C 234.714844 124.335938 235.996094 119.664062 235.265625 114.359375 C 234.925781 111.894531 232.648438 110.15625 230.6875 110.628906 C 230.238281 110.738281 229.761719 111 229.617188 110.347656 C 229.472656 109.691406 230.015625 109.496094 230.519531 109.398438 C 231.304688 109.234375 232.078125 109.277344 232.839844 109.527344 C 233.601562 109.78125 234.25 110.207031 234.78125 110.8125 C 236.472656 112.550781 236.5 114.679688 236.617188 116.929688 C 236.878906 121.976562 234.480469 125.679688 231.074219 128.972656 C 230.878906 129.164062 230.664062 129.320312 230.421875 129.445312 C 229.519531 129.875 228.941406 129.523438 228.878906 128.527344 C 228.882812 127.890625 229.019531 127.28125 229.289062 126.703125 C 229.394531 126.410156 229.550781 126.050781 229.238281 125.835938 C 228.921875 125.621094 228.640625 125.835938 228.375 126.023438 C 227.816406 126.40625 227.328125 126.863281 226.910156 127.390625 C 225.835938 128.644531 224.914062 130.105469 223.300781 130.738281 C 219.378906 132.289062 215.285156 132.203125 211.265625 131.425781 C 208.84375 130.953125 206.71875 129.554688 204.765625 127.992188 C 202.28125 126.03125 199.933594 123.835938 197 122.46875 C 196.382812 122.148438 195.730469 122.015625 195.039062 122.070312 C 194.78125 122.09375 194.5625 122.195312 194.375 122.371094 C 194.1875 122.546875 194.074219 122.761719 194.035156 123.015625 C 193.96875 123.238281 193.976562 123.460938 194.058594 123.679688 C 194.144531 123.894531 194.285156 124.066406 194.480469 124.1875 C 194.96875 124.535156 195.507812 124.753906 196.097656 124.839844 C 196.835938 125.011719 197.632812 124.972656 198.300781 125.417969 C 198.59375 125.613281 198.953125 125.78125 198.953125 126.199219 C 198.953125 126.621094 198.574219 126.769531 198.242188 126.914062 C 196.410156 127.691406 194.554688 128.320312 192.507812 128.058594 C 190.460938 127.796875 188.425781 127.660156 186.683594 126.300781 C 185.964844 125.78125 185.320312 125.179688 184.75 124.5 C 184.183594 123.820312 183.707031 123.082031 183.324219 122.28125 C 182.941406 121.480469 182.660156 120.648438 182.488281 119.777344 C 182.3125 118.910156 182.25 118.03125 182.296875 117.144531 C 182.417969 111.695312 184.773438 105.378906 191.191406 103.769531 C 192.152344 103.511719 193.125 103.421875 194.113281 103.503906 C 195.101562 103.585938 196.042969 103.835938 196.945312 104.246094 C 196.457031 104.738281 196.117188 104.496094 195.777344 104.460938 C 192.035156 104.058594 188.828125 105.078125 186.519531 108.148438 C 185.71875 109.25 185.097656 110.4375 184.648438 111.71875 C 183.652344 114.585938 183.488281 117.5 184.152344 120.460938 C 184.621094 122.792969 186.355469 124.382812 188.277344 125.578125 C 190.429688 126.886719 192.894531 126.777344 195.320312 126.410156 C 194.882812 126.074219 194.417969 125.785156 193.925781 125.539062 C 193.515625 125.335938 193.1875 125.039062 192.933594 124.65625 C 192.683594 124.273438 192.546875 123.851562 192.523438 123.394531 C 192.496094 122.933594 192.589844 122.5 192.800781 122.09375 C 193.007812 121.683594 193.304688 121.355469 193.691406 121.109375 C 194.195312 120.777344 194.746094 120.601562 195.351562 120.589844 C 195.953125 120.574219 196.511719 120.722656 197.03125 121.03125 C 199.246094 122.042969 201.289062 123.335938 203.152344 124.90625 C 205.175781 126.847656 207.457031 128.421875 209.988281 129.625 C 213.636719 131.253906 217.378906 130.785156 221.105469 130.167969 C 224.105469 129.671875 227.253906 125.382812 227.25 123.195312 C 226.796875 123.324219 226.699219 123.761719 226.476562 124.078125 C 222.347656 129.960938 214.472656 128.71875 210.453125 123.992188 C 208.597656 121.8125 208.160156 119.140625 208.492188 116.382812 C 208.664062 114.988281 208.492188 113.492188 209.238281 112.09375 C 209.582031 112.5 209.699219 112.964844 209.585938 113.484375 C 209.585938 114.960938 209.511719 116.453125 209.585938 117.925781 C 209.785156 121.015625 210.996094 123.5 213.839844 125.117188 C 214.835938 125.695312 215.898438 126.097656 217.027344 126.320312 C 218.15625 126.542969 219.289062 126.578125 220.429688 126.421875 C 223.300781 126.058594 226.105469 123.695312 226.632812 120.90625 C 227.136719 118.441406 227.054688 115.996094 226.386719 113.570312 C 225.265625 109.265625 224.988281 104.90625 225.554688 100.496094 C 225.921875 96.984375 226.484375 93.503906 226.980469 89.824219 L 225.28125 90.476562 C 223.441406 91.183594 221.558594 91.757812 219.640625 92.203125 C 215.476562 93.042969 211.210938 93.753906 207.078125 95.0625 C 203.683594 96.070312 200.222656 96.765625 196.699219 97.140625 C 193.742188 97.492188 190.8125 98.09375 188.265625 99.691406 C 182.441406 103.257812 176.390625 106.382812 170.109375 109.066406 C 165.945312 110.871094 161.804688 112.714844 157.84375 114.917969 C 152.515625 117.878906 147.234375 120.929688 141.714844 123.558594 C 137.117188 125.691406 132.292969 127 127.246094 127.484375 C 125.042969 127.722656 122.851562 128.136719 120.453125 128.484375 C 123.199219 131.332031 124.625 134.660156 126.03125 138.015625 C 128.625 144.09375 131.660156 149.980469 136.097656 154.953125 C 136.242188 155.113281 136.417969 155.292969 136.15625 155.609375 C 134.960938 154.976562 133.976562 154.101562 133.203125 152.992188 C 130.085938 148.675781 127.523438 144.050781 125.515625 139.121094 C 124.296875 136.183594 123.335938 133.125 121.414062 130.527344 C 120.761719 129.601562 120.105469 128.425781 118.746094 128.566406 C 115.210938 128.914062 111.667969 128.855469 108.125 128.894531 C 106.945312 128.871094 105.800781 128.652344 104.699219 128.242188 C 102.558594 127.527344 100.542969 126.554688 98.648438 125.332031 C 98.375 125.15625 98.089844 124.847656 97.644531 125.109375 C 98.089844 127.84375 98.488281 130.589844 98.988281 133.3125 C 99.996094 138.101562 100.585938 142.945312 100.753906 147.835938 C 100.789062 150.566406 100.953125 153.300781 101.09375 156.027344 C 101.335938 160.601562 102.050781 165.109375 102.03125 169.683594 C 102.03125 173.097656 101.992188 176.515625 102.03125 179.929688 C 102.179688 188.082031 101.554688 196.273438 102.835938 204.394531 C 103.78125 210.375 104.605469 216.378906 106.496094 222.164062 C 107.953125 226.640625 109.429688 231.113281 110.765625 235.632812 C 111.960938 240.011719 113.488281 244.273438 115.339844 248.417969 C 116.714844 251.339844 118.355469 254.140625 119.527344 257.160156 C 119.859375 257.699219 119.957031 258.28125 119.8125 258.898438 C 118.636719 257.140625 117.589844 255.328125 116.542969 253.519531 C 113.101562 247.53125 110.539062 241.1875 108.847656 234.488281 C 108.785156 234.238281 108.6875 233.886719 108.503906 233.832031 C 108.148438 233.675781 107.980469 234.082031 107.777344 234.296875 C 105.605469 236.671875 103.332031 238.925781 101.597656 241.691406 C 99.742188 244.652344 97.265625 247.15625 95.007812 249.832031 C 93.832031 251.207031 92.796875 252.679688 91.894531 254.246094 C 90.992188 255.8125 90.242188 257.453125 89.648438 259.160156 C 89.050781 260.867188 88.617188 262.617188 88.34375 264.402344 C 88.074219 266.191406 87.96875 267.992188 88.03125 269.796875 C 88.015625 271.058594 88.210938 272.28125 88.628906 273.472656 C 89.898438 276.734375 90.496094 280.113281 90.417969 283.613281 C 90.371094 287.171875 90.808594 290.671875 91.726562 294.113281 C 93.257812 300.066406 95.9375 305.578125 98.511719 311.175781 C 100.558594 315.648438 102.632812 320.121094 106.011719 323.859375 C 109.128906 327.3125 111.640625 331.273438 115.113281 334.457031 C 118.09375 337.175781 120.78125 340.230469 124.050781 342.597656 C 130.082031 346.839844 136.402344 350.601562 143.007812 353.882812 C 147.875 356.328125 152.941406 358.234375 158.210938 359.609375 C 161.308594 360.453125 164.328125 361.535156 167.671875 361.40625 C 172.246094 361.222656 176.824219 361.453125 181.398438 361.328125 C 187.898438 361.15625 194.390625 361.59375 200.902344 360.914062 C 206.734375 360.308594 212.355469 359.214844 217.652344 356.785156 C 221.574219 354.972656 225.378906 352.796875 229.269531 350.847656 C 234.828125 348.074219 240.140625 344.804688 245.4375 341.539062 C 248.609375 339.578125 251.414062 337.085938 254.707031 335.3125 C 259.460938 332.648438 263.820312 329.445312 267.785156 325.703125 C 271.226562 322.683594 274.386719 319.390625 277.261719 315.824219 C 278.9375 313.667969 281.042969 311.835938 282.335938 309.398438 C 285.140625 304.121094 289.226562 299.664062 291.828125 294.242188 C 293.332031 291.097656 295.289062 288.167969 297.058594 285.15625 C 299.339844 281.082031 301.382812 276.890625 303.1875 272.582031 C 305.375 267.652344 307.398438 262.679688 308.519531 257.375 C 309.691406 251.890625 310.722656 246.371094 312.117188 240.945312 C 312.804688 238.265625 311.941406 236.574219 309.980469 235.011719 C 307.777344 233.25 305.292969 231.847656 303.328125 229.78125 C 299.007812 225.203125 293.988281 221.390625 289.875 216.613281 C 287.363281 213.703125 284.394531 211.1875 282.421875 207.8125 C 281.324219 205.898438 280.042969 204.066406 278.628906 201.882812 Z M 273.066406 65.445312 C 274.445312 65.28125 275.917969 65.09375 277.386719 64.929688 C 280.390625 64.582031 282.652344 63.332031 283.390625 60.136719 C 283.496094 59.710938 283.820312 59.332031 283.925781 58.90625 C 284.234375 57.601562 285.195312 57.023438 286.292969 56.539062 C 287.390625 56.058594 288.507812 55.574219 289.59375 55.03125 C 292.816406 53.414062 293.214844 51.96875 291.359375 48.832031 C 290.847656 47.976562 290.3125 47.105469 289.226562 46.9375 C 287.296875 46.617188 285.382812 46.699219 283.488281 47.183594 C 278.546875 48.539062 273.726562 50.226562 269.019531 52.25 C 258.898438 56.488281 248.835938 60.925781 238.695312 65.144531 C 233.773438 67.191406 228.746094 69.007812 223.71875 70.78125 C 214.273438 74.140625 204.980469 78.0625 195.402344 81.082031 C 192.6875 81.910156 189.910156 82.382812 187.070312 82.507812 C 184.234375 82.632812 181.425781 82.402344 178.648438 81.816406 C 175.398438 81.199219 172.144531 81.175781 168.886719 81.742188 C 163.605469 82.617188 158.464844 84.019531 153.46875 85.941406 C 146.082031 88.84375 138.359375 90.84375 131.128906 94.179688 C 128.816406 95.25 126.316406 95.925781 123.996094 96.996094 C 118.363281 99.613281 112.4375 101.480469 106.566406 103.351562 C 100.441406 105.3125 93.949219 106.058594 87.667969 107.566406 C 84.261719 108.390625 80.898438 109.195312 77.664062 110.6875 C 74.042969 112.359375 70.472656 114.191406 66.667969 115.40625 C 64.941406 115.957031 64.3125 117.527344 63.347656 118.773438 C 63.214844 118.976562 63.171875 119.195312 63.21875 119.429688 C 63.265625 119.667969 63.390625 119.855469 63.585938 119.988281 C 65.292969 121.363281 66.949219 122.820312 69.472656 121.953125 C 71.074219 121.382812 72.742188 120.996094 74.296875 120.277344 C 76.382812 119.257812 78.582031 118.675781 80.898438 118.53125 C 84.449219 118.417969 87.988281 118.578125 91.511719 119.015625 C 93.269531 119.210938 94.78125 119.667969 95.878906 121.230469 C 96.441406 122.089844 97.171875 122.765625 98.066406 123.257812 C 99.109375 123.789062 100.101562 124.390625 101.109375 124.964844 C 103.148438 126.136719 105.3125 127.148438 107.644531 127.332031 C 111.234375 127.535156 114.820312 127.484375 118.402344 127.183594 C 121.539062 126.984375 124.625 126.371094 127.742188 126 C 131.320312 125.574219 134.875 125.03125 138.203125 123.625 C 142.832031 121.652344 147.324219 119.40625 151.679688 116.890625 C 156.738281 113.976562 161.8125 111.078125 167.207031 108.84375 C 173.390625 106.277344 179.359375 103.28125 185.113281 99.859375 C 188.789062 97.597656 192.773438 96.226562 197.0625 95.746094 C 199.839844 95.480469 202.5625 94.941406 205.230469 94.132812 C 208.179688 93.21875 211.207031 92.503906 214.226562 91.863281 C 217.605469 91.160156 221.003906 90.558594 224.242188 89.335938 C 225.550781 88.832031 226.96875 88.550781 227.191406 86.796875 C 227.265625 86.570312 227.410156 86.410156 227.628906 86.3125 C 230.957031 84.785156 233.355469 81.90625 236.585938 80.1875 C 240.246094 78.226562 243.914062 76.265625 247.960938 75.421875 C 252.5 74.441406 257.046875 73.460938 261.730469 73.191406 C 263.761719 73.085938 265.867188 72.605469 267.28125 70.863281 C 268.308594 69.625 269.242188 68.316406 270.085938 66.941406 C 270.738281 65.753906 271.542969 65.027344 273.074219 65.433594 Z M 96.996094 128.359375 C 96.695312 124.710938 96.859375 124.933594 95.238281 123.035156 C 93.773438 121.335938 92.269531 120.421875 90.125 120.421875 C 89.765625 120.402344 89.414062 120.363281 89.058594 120.304688 C 85.710938 119.78125 82.359375 119.75 79.003906 120.21875 C 76.109375 120.691406 73.539062 122.21875 70.734375 123.023438 C 68.117188 123.761719 65.648438 124.117188 63.292969 122.371094 C 62.679688 121.917969 62.40625 122.113281 62.457031 122.847656 C 62.488281 124.050781 62.710938 125.214844 63.125 126.34375 C 63.535156 127.472656 64.113281 128.507812 64.863281 129.449219 C 66.933594 131.902344 69.503906 133.542969 72.957031 133.058594 C 73.449219 133.015625 73.941406 133.015625 74.433594 133.058594 C 75.742188 133.117188 76.054688 133.5625 75.605469 134.757812 C 75.449219 135.183594 75.246094 135.582031 75.09375 136.007812 C 74.726562 137 74.046875 137.96875 74.40625 139.085938 C 74.839844 140.609375 75.480469 142.039062 76.324219 143.375 C 79.59375 148.246094 84.082031 151.476562 89.3125 153.894531 C 91.84375 155.070312 93.707031 156.875 93.699219 159.941406 C 93.699219 160.8125 94.085938 161.121094 94.898438 161.414062 C 95.308594 161.535156 95.695312 161.714844 96.054688 161.945312 C 96.414062 162.179688 96.730469 162.460938 97.007812 162.789062 C 97.285156 163.113281 97.511719 163.476562 97.683594 163.867188 C 97.855469 164.261719 97.96875 164.667969 98.023438 165.09375 C 98.058594 165.449219 98.121094 165.800781 98.210938 166.148438 C 98.460938 167.050781 99.167969 167.132812 99.925781 167.023438 C 100.683594 166.914062 100.453125 166.257812 100.449219 165.753906 C 100.375 161.09375 99.683594 156.457031 99.792969 151.785156 C 99.792969 150.933594 99.539062 150.476562 98.644531 150.300781 C 94.609375 149.582031 91.570312 147.234375 89.191406 144.089844 C 86.460938 140.492188 83.078125 137.683594 79.042969 135.660156 C 78.753906 135.515625 78.1875 135.496094 78.390625 135.007812 C 78.59375 134.515625 79.042969 134.832031 79.351562 134.902344 C 79.652344 134.996094 79.941406 135.109375 80.226562 135.242188 C 84.378906 136.84375 87.523438 139.6875 90.242188 143.140625 C 92.300781 145.753906 94.734375 147.898438 98.152344 148.625 C 99.1875 148.839844 99.578125 148.703125 99.597656 147.535156 C 99.5625 144.75 99.332031 141.976562 98.910156 139.222656 C 98.617188 136.773438 97.324219 135.910156 94.765625 136.261719 C 92.796875 136.585938 90.84375 136.519531 88.902344 136.0625 C 86.960938 135.609375 85.179688 134.796875 83.5625 133.632812 C 79.730469 130.953125 75.566406 128.796875 70.675781 128.75 C 70.445312 128.75 70.199219 128.75 70.140625 128.464844 C 70.078125 128.175781 70.320312 127.960938 70.582031 127.902344 C 71.011719 127.785156 71.445312 127.726562 71.890625 127.722656 C 74.722656 127.792969 77.390625 128.492188 79.894531 129.816406 C 81.820312 130.875 83.730469 131.96875 85.585938 133.152344 C 86.773438 133.902344 88.054688 134.421875 89.429688 134.710938 C 90.804688 135.003906 92.1875 135.046875 93.578125 134.84375 C 94.917969 134.6875 96.191406 134.300781 97.550781 134.84375 C 97.851562 134.960938 98.285156 135.015625 98.171875 134.496094 C 97.714844 132.339844 97.6875 130 95.464844 128.613281 C 93.703125 127.535156 91.792969 126.992188 89.726562 126.984375 C 88.917969 127 88.152344 126.820312 87.4375 126.441406 C 87.207031 126.3125 86.929688 126.167969 86.972656 125.847656 C 87.019531 125.527344 87.347656 125.488281 87.628906 125.488281 C 90.910156 125.5 94.261719 125.488281 96.996094 128.359375 Z M 278.683594 137.898438 C 279.988281 137.503906 281.09375 137.199219 282.199219 136.832031 C 285.109375 135.871094 287.664062 134.433594 289.390625 131.746094 C 289.90625 130.953125 289.867188 130.613281 288.960938 130.332031 C 287.84375 129.96875 286.832031 129.410156 285.929688 128.660156 C 285.023438 127.910156 284.292969 127.015625 283.730469 125.984375 C 283.007812 125.003906 282.421875 123.949219 281.972656 122.820312 C 280.230469 127.960938 279.957031 132.980469 278.683594 137.898438 Z M 278.683594 137.898438 " fill-opacity="1" fill-rule="nonzero"/></g><path fill="#eff0f6" d="M 224.398438 157.316406 C 223.542969 157.328125 222.699219 157.238281 221.867188 157.039062 C 218.796875 155.914062 215.820312 156.484375 212.957031 157.601562 C 211.933594 158.015625 210.878906 158.308594 209.789062 158.484375 C 208.699219 158.65625 207.605469 158.707031 206.503906 158.628906 C 205.402344 158.554688 204.324219 158.359375 203.265625 158.035156 C 202.210938 157.714844 201.207031 157.28125 200.246094 156.734375 C 196.574219 154.769531 192.683594 154.542969 188.644531 154.496094 C 184.601562 154.449219 180.640625 154.941406 176.765625 153.582031 C 176.199219 153.398438 175.621094 153.367188 175.039062 153.484375 C 174.496094 153.570312 173.984375 153.449219 173.867188 152.828125 C 173.753906 152.472656 173.75 152.113281 173.859375 151.757812 C 173.96875 151.398438 174.167969 151.101562 174.460938 150.867188 C 174.953125 150.515625 175.605469 150.253906 176.058594 150.785156 C 177.785156 152.804688 180.050781 152.347656 182.277344 152.328125 C 185.675781 152.328125 188.898438 151.261719 192.21875 150.75 C 195.867188 150.195312 199.351562 150.449219 202.679688 152.15625 C 204.363281 152.910156 206.105469 153.484375 207.910156 153.875 C 209.242188 154.253906 210.597656 154.390625 211.980469 154.285156 C 213.359375 154.179688 214.679688 153.839844 215.9375 153.261719 C 216.683594 152.890625 217.464844 152.613281 218.28125 152.4375 C 219.09375 152.261719 219.917969 152.1875 220.753906 152.214844 C 221.585938 152.242188 222.402344 152.375 223.203125 152.605469 C 224.003906 152.839844 224.765625 153.167969 225.484375 153.589844 C 227.222656 154.5625 228.9375 155.007812 230.714844 153.589844 C 230.792969 153.511719 230.882812 153.449219 230.976562 153.394531 C 231.074219 153.34375 231.175781 153.300781 231.28125 153.273438 C 231.386719 153.246094 231.496094 153.230469 231.605469 153.230469 C 231.714844 153.230469 231.824219 153.242188 231.929688 153.269531 C 232.035156 153.296875 232.136719 153.335938 232.234375 153.390625 C 232.332031 153.441406 232.417969 153.503906 232.5 153.578125 C 232.582031 153.652344 232.652344 153.738281 232.710938 153.828125 C 232.769531 153.921875 232.816406 154.019531 232.851562 154.125 C 232.941406 154.300781 232.984375 154.492188 232.976562 154.691406 C 232.972656 154.890625 232.917969 155.074219 232.820312 155.25 C 232.71875 155.421875 232.585938 155.5625 232.417969 155.667969 C 232.246094 155.773438 232.0625 155.832031 231.863281 155.84375 C 229.308594 155.792969 227 157.378906 224.398438 157.316406 Z M 224.398438 157.316406 " fill-opacity="1" fill-rule="nonzero"/><path fill="#eff0f6" d="M 197.621094 341.105469 C 200.335938 338.664062 203.363281 336.703125 206.699219 335.222656 C 207.046875 335.078125 207.078125 334.71875 207.355469 334.601562 C 207.949219 334.332031 208.269531 333.34375 209.257812 334.011719 C 209.511719 334.1875 210.265625 333.769531 210.707031 333.496094 C 212.917969 332.136719 215.429688 331.535156 217.808594 330.601562 C 220.65625 329.566406 223.554688 328.691406 226.503906 327.984375 C 230.042969 326.925781 233.390625 325.433594 236.539062 323.5 C 236.984375 323.257812 237.332031 322.917969 237.585938 322.480469 C 237.628906 322.359375 237.699219 322.257812 237.796875 322.171875 C 237.890625 322.085938 238 322.027344 238.125 321.996094 C 238.246094 321.964844 238.371094 321.964844 238.496094 321.992188 C 238.621094 322.019531 238.730469 322.078125 238.828125 322.160156 C 239.417969 322.566406 239.140625 323.074219 238.828125 323.429688 C 237.550781 324.734375 236.054688 325.691406 234.335938 326.304688 C 232.296875 327.019531 230.382812 327.976562 228.589844 329.179688 C 227.953125 329.515625 227.28125 329.75 226.574219 329.886719 C 223.027344 331.023438 219.46875 332.125 215.839844 332.960938 C 214.292969 333.332031 212.859375 333.957031 211.539062 334.84375 C 208.863281 336.621094 205.71875 337.414062 203.007812 339.09375 C 202.320312 339.511719 201.667969 339.980469 201.046875 340.492188 C 200.007812 341.328125 198.960938 341.753906 197.621094 341.105469 Z M 197.621094 341.105469 " fill-opacity="1" fill-rule="nonzero"/><path fill="#eff0f6" d="M 225.511719 163.054688 C 223.46875 165.671875 221.953125 168.691406 219.515625 170.972656 C 218.695312 171.769531 217.746094 172.355469 216.664062 172.730469 C 215.582031 173.101562 214.472656 173.226562 213.335938 173.101562 C 208.171875 172.535156 203.027344 171.882812 197.847656 171.402344 C 195.546875 171.199219 193.371094 170.574219 191.3125 169.527344 C 189.683594 168.789062 188.339844 167.703125 187.285156 166.257812 C 186.242188 164.574219 185.027344 163.023438 183.636719 161.617188 C 183.472656 161.519531 183.355469 161.382812 183.292969 161.203125 C 183.226562 161.027344 183.226562 160.847656 183.289062 160.667969 C 184.855469 161.882812 186.210938 163.300781 187.355469 164.917969 C 189.109375 167.46875 191.65625 168.617188 194.460938 169.421875 C 197.109375 170.179688 199.847656 170.253906 202.570312 170.488281 C 205.738281 170.761719 208.898438 171.03125 212.046875 171.507812 C 212.816406 171.660156 213.585938 171.695312 214.363281 171.621094 C 215.140625 171.542969 215.890625 171.351562 216.613281 171.054688 C 217.335938 170.753906 217.996094 170.355469 218.601562 169.859375 C 219.203125 169.363281 219.722656 168.792969 220.15625 168.140625 C 221.121094 166.785156 222.1875 165.515625 223.351562 164.328125 C 223.929688 163.664062 224.648438 163.238281 225.511719 163.054688 Z M 225.511719 163.054688 " fill-opacity="1" fill-rule="nonzero"/><path fill="#eff0f6" d="M 179.320312 150.167969 C 183.074219 148.75 186.285156 146.4375 189.628906 144.375 C 192.246094 142.78125 194.964844 141.8125 198.03125 142.09375 C 199.738281 142.339844 201.21875 143.054688 202.472656 144.238281 C 206.539062 147.722656 210.847656 147.265625 215.335938 145.394531 C 217.007812 144.617188 218.753906 144.066406 220.566406 143.742188 C 221.558594 143.578125 222.53125 143.65625 223.484375 143.976562 C 224.433594 144.292969 225.257812 144.816406 225.949219 145.546875 C 227.253906 146.851562 228.449219 148.25 229.53125 149.742188 C 230.445312 150.992188 231.664062 151.28125 233.066406 151.222656 C 233.382812 151.222656 233.832031 150.867188 233.925781 151.425781 C 233.984375 151.808594 233.605469 152.078125 233.238281 152.136719 C 231.695312 152.4375 230.257812 152.234375 229.160156 151.011719 C 228.058594 149.789062 227.144531 148.601562 226.15625 147.378906 C 223.863281 144.546875 221.796875 144.023438 218.3125 145.304688 C 215.875 146.195312 213.53125 147.417969 210.925781 147.769531 C 208.316406 148.121094 205.734375 147.769531 203.492188 146.15625 C 202.914062 145.730469 202.273438 145.382812 201.71875 144.933594 C 198.128906 142.035156 194.457031 142.648438 190.8125 144.722656 C 187.65625 146.519531 184.621094 148.535156 181.203125 149.835938 C 180.617188 150.179688 179.988281 150.289062 179.320312 150.167969 Z M 179.320312 150.167969 " fill-opacity="1" fill-rule="nonzero"/><path fill="#eff0f6" d="M 170.796875 344.910156 C 167.171875 345.160156 164.082031 343.65625 161.078125 341.898438 C 160.269531 341.332031 159.414062 340.855469 158.503906 340.472656 C 154.242188 339.046875 150.828125 336.078125 146.878906 334.078125 C 146.261719 333.765625 145.769531 333.316406 145.410156 332.722656 C 145.28125 332.550781 145.234375 332.359375 145.265625 332.144531 C 145.300781 331.933594 145.402344 331.765625 145.578125 331.640625 C 145.890625 331.382812 146.1875 331.535156 146.414062 331.769531 C 147.761719 333.148438 149.585938 333.769531 151.1875 334.738281 C 154.117188 336.558594 157.140625 338.210938 160.257812 339.695312 C 161.746094 340.347656 163.085938 341.394531 164.578125 342.113281 C 166.296875 342.972656 168.117188 343.367188 170.035156 343.296875 C 171.121094 343.183594 172.1875 343.273438 173.234375 343.570312 C 173.605469 343.703125 174.121094 343.78125 174.101562 344.269531 C 174.082031 344.761719 173.515625 344.878906 173.082031 344.925781 C 172.320312 344.945312 171.558594 344.910156 170.796875 344.910156 Z M 170.796875 344.910156 " fill-opacity="1" fill-rule="nonzero"/><path fill="#eff0f6" d="M 182.824219 178.746094 C 185.859375 178.230469 188.871094 177.523438 191.933594 177.242188 C 199.40625 176.542969 206.882812 176.417969 214.285156 178.070312 C 216.097656 178.492188 217.769531 179.226562 219.304688 180.277344 C 220.503906 181.167969 221.828125 181.796875 223.273438 182.164062 C 223.652344 182.242188 224.191406 182.40625 224.125 182.878906 C 224.058594 183.347656 223.46875 183.269531 223.109375 183.25 C 221.988281 183.230469 220.992188 182.871094 220.117188 182.171875 C 217.179688 179.621094 213.578125 178.902344 209.917969 178.433594 C 201.859375 177.394531 193.8125 177.507812 185.785156 178.773438 C 184.824219 178.914062 183.824219 179.007812 182.878906 179.125 Z M 182.824219 178.746094 " fill-opacity="1" fill-rule="nonzero"/><path fill="#eff0f6" d="M 196.28125 200.4375 C 197.183594 201.5625 197.828125 202.820312 198.214844 204.210938 C 198.601562 205.601562 198.699219 207.011719 198.503906 208.441406 C 199.15625 207.636719 199.605469 207.132812 200.078125 206.601562 C 200.28125 206.382812 200.589844 206.144531 200.894531 206.425781 C 201.203125 206.707031 200.96875 207.007812 200.796875 207.261719 C 200.453125 207.785156 200.09375 208.296875 199.71875 208.792969 C 198.972656 209.796875 198.601562 210.925781 198.605469 212.179688 C 198.605469 212.683594 198.660156 213.1875 198.0625 213.414062 C 197.742188 213.585938 197.398438 213.671875 197.03125 213.671875 C 196.664062 213.671875 196.320312 213.585938 196 213.414062 C 195.410156 213.042969 195.480469 212.539062 195.855469 212.035156 C 198.148438 208.90625 197.742188 205.582031 196.507812 202.230469 C 196.351562 201.6875 195.964844 201.195312 196.28125 200.4375 Z M 196.28125 200.4375 " fill-opacity="1" fill-rule="nonzero"/></svg>