<svg xmlns="http://www.w3.org/2000/svg" xmlns:xlink="http://www.w3.org/1999/xlink" width="500" zoomAndPan="magnify" viewBox="0 0 375 374.999991" height="500" preserveAspectRatio="xMidYMid meet" version="1.0"><defs><clipPath id="7d80feb208"><path d="M 131.25 131.65625 L 243.75 131.65625 L 243.75 244.15625 L 131.25 244.15625 Z M 131.25 131.65625 " clip-rule="nonzero"/></clipPath><clipPath id="19fbd39c02"><path d="M 187.5 131.65625 C 156.433594 131.65625 131.25 156.839844 131.25 187.90625 C 131.25 218.972656 156.433594 244.15625 187.5 244.15625 C 218.566406 244.15625 243.75 218.972656 243.75 187.90625 C 243.75 156.839844 218.566406 131.65625 187.5 131.65625 Z M 187.5 131.65625 " clip-rule="nonzero"/></clipPath><clipPath id="0acbb4ee30"><path d="M 241.882812 244.164062 L 354.382812 244.164062 L 354.382812 356.664062 L 241.882812 356.664062 Z M 241.882812 244.164062 " clip-rule="nonzero"/></clipPath><clipPath id="f82aea4e58"><path d="M 298.132812 244.164062 C 267.070312 244.164062 241.882812 269.347656 241.882812 300.414062 C 241.882812 331.476562 267.070312 356.664062 298.132812 356.664062 C 329.199219 356.664062 354.382812 331.476562 354.382812 300.414062 C 354.382812 269.347656 329.199219 244.164062 298.132812 244.164062 Z M 298.132812 244.164062 " clip-rule="nonzero"/></clipPath><clipPath id="e4ec3ae6da"><path d="M 18.75 19.15625 L 131.25 19.15625 L 131.25 131.65625 L 18.75 131.65625 Z M 18.75 19.15625 " clip-rule="nonzero"/></clipPath><clipPath id="d1aebe83e3"><path d="M 75 19.15625 C 43.933594 19.15625 18.75 44.339844 18.75 75.40625 C 18.75 106.472656 43.933594 131.65625 75 131.65625 C 106.066406 131.65625 131.25 106.472656 131.25 75.40625 C 131.25 44.339844 106.066406 19.15625 75 19.15625 Z M 75 19.15625 " clip-rule="nonzero"/></clipPath><clipPath id="8963aa7e79"><path d="M 244.132812 19.15625 L 356.632812 19.15625 L 356.632812 131.65625 L 244.132812 131.65625 Z M 244.132812 19.15625 " clip-rule="nonzero"/></clipPath><clipPath id="82889b9ad5"><path d="M 300.382812 19.15625 C 269.320312 19.15625 244.132812 44.339844 244.132812 75.40625 C 244.132812 106.472656 269.320312 131.65625 300.382812 131.65625 C 331.449219 131.65625 356.632812 106.472656 356.632812 75.40625 C 356.632812 44.339844 331.449219 19.15625 300.382812 19.15625 Z M 300.382812 19.15625 " clip-rule="nonzero"/></clipPath><clipPath id="42fc60248a"><path d="M 15.75 243.820312 L 128.25 243.820312 L 128.25 356.320312 L 15.75 356.320312 Z M 15.75 243.820312 " clip-rule="nonzero"/></clipPath><clipPath id="f90d3265f6"><path d="M 72 243.820312 C 40.933594 243.820312 15.75 269.003906 15.75 300.070312 C 15.75 331.136719 40.933594 356.320312 72 356.320312 C 103.066406 356.320312 128.25 331.136719 128.25 300.070312 C 128.25 269.003906 103.066406 243.820312 72 243.820312 Z M 72 243.820312 " clip-rule="nonzero"/></clipPath><clipPath id="7a0ad4ca8a"><path d="M 23.175781 136.492188 L 125.925781 136.492188 L 125.925781 239.242188 L 23.175781 239.242188 Z M 23.175781 136.492188 " clip-rule="nonzero"/></clipPath><clipPath id="a436b71e5b"><path d="M 131.242188 249.398438 L 238.5 249.398438 L 238.5 356.65625 L 131.242188 356.65625 Z M 131.242188 249.398438 " clip-rule="nonzero"/></clipPath><clipPath id="08359340c9"><path d="M 184.871094 356.65625 C 155.253906 356.65625 131.242188 332.644531 131.242188 303.027344 C 131.242188 273.410156 155.253906 249.398438 184.871094 249.398438 C 214.488281 249.398438 238.5 273.410156 238.5 303.027344 C 238.5 332.644531 214.488281 356.65625 184.871094 356.65625 Z M 184.871094 356.65625 " clip-rule="nonzero"/></clipPath><clipPath id="48ba1adeac"><path d="M 184.871094 249.398438 L 238.5 249.398438 L 238.5 303.027344 L 184.871094 303.027344 Z M 184.871094 249.398438 " clip-rule="nonzero"/></clipPath><clipPath id="44188e4ded"><path d="M 249.09375 136.492188 L 351.84375 136.492188 L 351.84375 239.242188 L 249.09375 239.242188 Z M 249.09375 136.492188 " clip-rule="nonzero"/></clipPath><clipPath id="9b6d72945e"><path d="M 275.980469 50.878906 L 325.035156 50.878906 L 325.035156 99.933594 L 275.980469 99.933594 Z M 275.980469 50.878906 " clip-rule="nonzero"/></clipPath><clipPath id="e379999fe2"><path d="M 300.507812 50.878906 C 286.960938 50.878906 275.980469 61.859375 275.980469 75.40625 C 275.980469 88.953125 286.960938 99.933594 300.507812 99.933594 C 314.054688 99.933594 325.035156 88.953125 325.035156 75.40625 C 325.035156 61.859375 314.054688 50.878906 300.507812 50.878906 Z M 300.507812 50.878906 " clip-rule="nonzero"/></clipPath><clipPath id="730f24b0ad"><path d="M 47.472656 275.542969 L 96.527344 275.542969 L 96.527344 324.597656 L 47.472656 324.597656 Z M 47.472656 275.542969 " clip-rule="nonzero"/></clipPath><clipPath id="59ed0b7c1c"><path d="M 72 275.542969 C 58.453125 275.542969 47.472656 286.523438 47.472656 300.070312 C 47.472656 313.613281 58.453125 324.597656 72 324.597656 C 85.546875 324.597656 96.527344 313.613281 96.527344 300.070312 C 96.527344 286.523438 85.546875 275.542969 72 275.542969 Z M 72 275.542969 " clip-rule="nonzero"/></clipPath><clipPath id="9340515f51"><path d="M 133.878906 19.15625 L 241.132812 19.15625 L 241.132812 126.414062 L 133.878906 126.414062 Z M 133.878906 19.15625 " clip-rule="nonzero"/></clipPath><clipPath id="300eef7873"><path d="M 187.507812 19.15625 C 217.125 19.15625 241.132812 43.167969 241.132812 72.785156 C 241.132812 102.402344 217.125 126.414062 187.507812 126.414062 C 157.886719 126.414062 133.878906 102.402344 133.878906 72.785156 C 133.878906 43.167969 157.886719 19.15625 187.507812 19.15625 Z M 187.507812 19.15625 " clip-rule="nonzero"/></clipPath><clipPath id="102adaadd2"><path d="M 133.878906 72.785156 L 187.507812 72.785156 L 187.507812 126.414062 L 133.878906 126.414062 Z M 133.878906 72.785156 " clip-rule="nonzero"/></clipPath><clipPath id="cbffe19a7b"><path d="M 162.980469 163.378906 L 212.035156 163.378906 L 212.035156 212.433594 L 162.980469 212.433594 Z M 162.980469 163.378906 " clip-rule="nonzero"/></clipPath><clipPath id="609c4f1784"><path d="M 187.507812 163.378906 C 173.960938 163.378906 162.980469 174.359375 162.980469 187.90625 C 162.980469 201.453125 173.960938 212.433594 187.507812 212.433594 C 201.050781 212.433594 212.035156 201.453125 212.035156 187.90625 C 212.035156 174.359375 201.050781 163.378906 187.507812 163.378906 Z M 187.507812 163.378906 " clip-rule="nonzero"/></clipPath><clipPath id="d10e33400e"><path d="M 275.941406 275.886719 L 324.992188 275.886719 L 324.992188 324.9375 L 275.941406 324.9375 Z M 275.941406 275.886719 " clip-rule="nonzero"/></clipPath><clipPath id="4f175e503f"><path d="M 300.46875 275.886719 C 286.921875 275.886719 275.941406 286.867188 275.941406 300.414062 C 275.941406 313.957031 286.921875 324.9375 300.46875 324.9375 C 314.011719 324.9375 324.992188 313.957031 324.992188 300.414062 C 324.992188 286.867188 314.011719 275.886719 300.46875 275.886719 Z M 300.46875 275.886719 " clip-rule="nonzero"/></clipPath></defs><g clip-path="url(#7d80feb208)"><g clip-path="url(#19fbd39c02)"><path fill="#b2c9d3" d="M 131.25 131.65625 L 243.75 131.65625 L 243.75 244.15625 L 131.25 244.15625 Z M 131.25 131.65625 " fill-opacity="1" fill-rule="nonzero"/></g></g><g clip-path="url(#0acbb4ee30)"><g clip-path="url(#f82aea4e58)"><path fill="#0f172a" d="M 241.882812 244.164062 L 354.382812 244.164062 L 354.382812 356.664062 L 241.882812 356.664062 Z M 241.882812 244.164062 " fill-opacity="1" fill-rule="nonzero"/></g></g><g clip-path="url(#e4ec3ae6da)"><g clip-path="url(#d1aebe83e3)"><path fill="#0f172a" d="M 18.75 19.15625 L 131.25 19.15625 L 131.25 131.65625 L 18.75 131.65625 Z M 18.75 19.15625 " fill-opacity="1" fill-rule="nonzero"/></g></g><g clip-path="url(#8963aa7e79)"><g clip-path="url(#82889b9ad5)"><path fill="#0f172a" d="M 244.132812 19.15625 L 356.632812 19.15625 L 356.632812 131.65625 L 244.132812 131.65625 Z M 244.132812 19.15625 " fill-opacity="1" fill-rule="nonzero"/></g></g><g clip-path="url(#42fc60248a)"><g clip-path="url(#f90d3265f6)"><path fill="#0f172a" d="M 15.75 243.820312 L 128.25 243.820312 L 128.25 356.320312 L 15.75 356.320312 Z M 15.75 243.820312 " fill-opacity="1" fill-rule="nonzero"/></g></g><g clip-path="url(#7a0ad4ca8a)"><path fill="#0f172a" d="M 84.867188 239.3125 L 23.175781 239.3125 L 23.175781 177.621094 C 23.175781 155 41.683594 136.492188 64.304688 136.492188 L 125.996094 136.492188 L 125.996094 198.1875 C 125.996094 220.804688 107.488281 239.3125 84.867188 239.3125 Z M 84.867188 239.3125 " fill-opacity="1" fill-rule="nonzero"/></g><g clip-path="url(#a436b71e5b)"><g clip-path="url(#08359340c9)"><path fill="#2c506d" d="M 238.5 356.65625 L 131.242188 356.65625 L 131.242188 249.398438 L 238.5 249.398438 Z M 238.5 356.65625 " fill-opacity="1" fill-rule="nonzero"/></g></g><g clip-path="url(#48ba1adeac)"><path fill="#2c506d" d="M 238.5 303.027344 L 184.871094 303.027344 L 184.871094 249.398438 L 238.5 249.398438 Z M 238.5 303.027344 " fill-opacity="1" fill-rule="nonzero"/></g><g clip-path="url(#44188e4ded)"><path fill="#2c506d" d="M 310.789062 239.3125 L 249.09375 239.3125 L 249.09375 177.621094 C 249.09375 155 267.601562 136.492188 290.222656 136.492188 L 351.914062 136.492188 L 351.914062 198.1875 C 351.914062 220.804688 333.40625 239.3125 310.789062 239.3125 Z M 310.789062 239.3125 " fill-opacity="1" fill-rule="nonzero"/></g><g clip-path="url(#9b6d72945e)"><g clip-path="url(#e379999fe2)"><path fill="#b2c9d3" d="M 275.980469 50.878906 L 325.035156 50.878906 L 325.035156 99.933594 L 275.980469 99.933594 Z M 275.980469 50.878906 " fill-opacity="1" fill-rule="nonzero"/></g></g><g clip-path="url(#730f24b0ad)"><g clip-path="url(#59ed0b7c1c)"><path fill="#b2c9d3" d="M 47.472656 275.542969 L 96.527344 275.542969 L 96.527344 324.597656 L 47.472656 324.597656 Z M 47.472656 275.542969 " fill-opacity="1" fill-rule="nonzero"/></g></g><g clip-path="url(#9340515f51)"><g clip-path="url(#300eef7873)"><path fill="#2c506d" d="M 133.878906 19.15625 L 241.132812 19.15625 L 241.132812 126.414062 L 133.878906 126.414062 Z M 133.878906 19.15625 " fill-opacity="1" fill-rule="nonzero"/></g></g><g clip-path="url(#102adaadd2)"><path fill="#2c506d" d="M 133.878906 72.785156 L 187.507812 72.785156 L 187.507812 126.414062 L 133.878906 126.414062 Z M 133.878906 72.785156 " fill-opacity="1" fill-rule="nonzero"/></g><g clip-path="url(#cbffe19a7b)"><g clip-path="url(#609c4f1784)"><path fill="#eff0f6" d="M 162.980469 163.378906 L 212.035156 163.378906 L 212.035156 212.433594 L 162.980469 212.433594 Z M 162.980469 163.378906 " fill-opacity="1" fill-rule="nonzero"/></g></g><g clip-path="url(#d10e33400e)"><g clip-path="url(#4f175e503f)"><path fill="#b2c9d3" d="M 275.941406 275.886719 L 324.992188 275.886719 L 324.992188 324.9375 L 275.941406 324.9375 Z M 275.941406 275.886719 " fill-opacity="1" fill-rule="nonzero"/></g></g></svg>